<?xml version="1.0" encoding="UTF-8" standalone="no"?>
<svg
   enable-background="new 0 0 2000 2000"
   viewBox="0 0 1866 1870"
   version="1.1"
   id="svg74"
   sodipodi:docname="contact_Dark.svg"
   width="1866"
   height="1870"
   inkscape:version="1.3.2 (091e20e, 2023-11-25, custom)"
   xmlns:inkscape="http://www.inkscape.org/namespaces/inkscape"
   xmlns:sodipodi="http://sodipodi.sourceforge.net/DTD/sodipodi-0.dtd"
   xmlns="http://www.w3.org/2000/svg"
   xmlns:svg="http://www.w3.org/2000/svg">
  <defs
     id="defs74" />
  <sodipodi:namedview
     id="namedview74"
     pagecolor="#ffffff"
     bordercolor="#000000"
     borderopacity="0.25"
     inkscape:showpageshadow="2"
     inkscape:pageopacity="0.0"
     inkscape:pagecheckerboard="0"
     inkscape:deskcolor="#d1d1d1"
     inkscape:zoom="0.4105"
     inkscape:cx="922.04629"
     inkscape:cy="926.91839"
     inkscape:window-width="1920"
     inkscape:window-height="1017"
     inkscape:window-x="-8"
     inkscape:window-y="-8"
     inkscape:window-maximized="1"
     inkscape:current-layer="svg74" />
  <rect
     width="2000"
     height="2000"
     fill="#ffe5d9"
     fill-rule="evenodd"
     class="colorffffff svgShape"
     clip-rule="evenodd"
     display="none"
     id="rect1"
     x="-77.400002"
     y="-74" />
  <path
     fill="#ffe2d5"
     d="m 97.4,873.5 c -27.1,196.1 247.2,565.7 677.4,672 430.3,106.2 824.6,-22.2 880.8,-286.9 22.8,-108.3 -104.1,-209.7 -95.4,-327 C 1563,821.3 1858,573.5 1712.6,351.8 1567.3,130 979.6,144.3 787,319.6 594.3,495.1 526.5,542.9 477.1,569.8 405.9,611.8 124.4,677.6 97.4,873.5 Z"
     class="colord5f0ff svgShape"
     opacity="0.5"
     id="path1" />
  <path
     fill="#7c230f"
     fill-rule="evenodd"
     d="m 1103.5,1602 c -5.7,0 -11.4,0.3 -16.9,0.9 -6.4,-46 -45.8,-81.4 -93.6,-81.4 -27.3,0 -51.8,11.5 -69,30 0,-0.9 0,-1.7 0,-2.6 0,-88.9 -72,-161 -161,-161 -88.8,0 -161,72 -161,161 0,14.6 2,28.7 5.6,42.1 -88.6,3.5 -159.4,76.4 -159.4,165.9 0,39 13.4,74.8 36,103.2 h 757.4 c 17.5,-26.4 27.8,-58 27.8,-92 0.1,-91.7 -74.3,-166.1 -165.9,-166.1 z"
     class="color0f7c7c svgShape"
     clip-rule="evenodd"
     id="path2" />
  <path
     fill="#8c2c16"
     fill-rule="evenodd"
     d="m 721.5,1636.6 c -5.7,0 -11.3,0.2 -16.9,0.8 -6.3,-45.9 -45.8,-81.4 -93.5,-81.4 -27.3,0 -51.8,11.6 -69,30 0,-0.8 0,-1.7 0,-2.5 0,-88.9 -72,-161 -161,-161 -89,0 -161,72 -161,161 0,14.5 1.9,28.6 5.6,42 -88.7,3.5 -159.5,76.4 -159.5,165.9 0,24.5 5.4,47.7 14.9,68.7 h 796.2 c 6.6,-18 10.2,-37.3 10.2,-57.5 0,-91.7 -74.3,-166 -166,-166 z"
     class="color16888c svgShape"
     clip-rule="evenodd"
     id="path3" />
  <path
     fill="#8c2c16"
     fill-rule="evenodd"
     d="m 1678.8,1637.1 c -4.9,0 -9.9,0.3 -14.6,0.8 -5.5,-39.8 -39.6,-70.4 -80.9,-70.4 -23.6,0 -44.8,9.9 -59.7,26 0,-0.8 0,-1.4 0,-2.2 0,-76.9 -62.3,-139.2 -139.2,-139.2 -62.7,0 -115.8,41.5 -133.1,98.6 -24.2,-41.1 -68.9,-68.6 -120,-68.6 -76.9,0 -139.2,62.3 -139.2,139.2 0,12.6 1.6,24.7 4.8,36.3 -76.7,3 -137.9,66.1 -137.9,143.4 0,21.2 4.6,41.2 12.8,59.4 h 271.5 417 238 c 15.2,-22.8 24,-50.1 24,-79.6 0,-79.3 -64.3,-143.7 -143.5,-143.7 z"
     class="color16888c svgShape"
     clip-rule="evenodd"
     id="path4" />
  <path
     fill="#feab84"
     fill-rule="evenodd"
     d="m 272.6,493.9 c 91.4,0 165.9,-74.5 165.9,-165.9 0,-91.3 -74.5,-165.9 -165.9,-165.9 -91.3,0 -165.9,74.5 -165.9,165.9 0,91.4 74.6,165.9 165.9,165.9 z"
     class="color84b2fe svgShape"
     clip-rule="evenodd"
     id="path5" />
  <path
     fill="#dba68d"
     fill-rule="evenodd"
     d="m 212.3,294.9 h 172 c 5,0 9.1,4.1 9.1,9.1 v 99.5 c 0,5 -4.1,9.1 -9.1,9.1 H 261.7 l -31.8,32.3 c -2.3,2.2 -4.3,1.6 -4.4,0.6 v -32.9 h -13.2 c -5,0 -9.1,-4.1 -9.1,-9.1 V 304 c 0,-5 4.1,-9.1 9.1,-9.1 z"
     class="color8dafdb svgShape"
     clip-rule="evenodd"
     id="path6" />
  <path
     fill="#ffe5d9"
     fill-rule="evenodd"
     d="m 205.7,289.4 h 172 c 5,0 9.1,4.1 9.1,9.1 V 398 c 0,5 -4.1,9.1 -9.1,9.1 H 255.2 l -31.8,32.3 c -2.3,2.2 -4.3,1.6 -4.4,0.6 v -32.9 h -13.2 c -5,0 -9.1,-4.1 -9.1,-9.1 v -99.5 c -0.1,-5 4,-9.1 9,-9.1 z"
     class="colorffffff svgShape"
     clip-rule="evenodd"
     id="path7" />
  <path
     fill="#dba68d"
     fill-rule="evenodd"
     d="m 248,358.4 c -5.6,0 -10.2,-4.6 -10.2,-10.2 0,-5.6 4.6,-10.2 10.2,-10.2 5.6,0 10.2,4.6 10.2,10.2 0,5.7 -4.6,10.2 -10.2,10.2 z"
     class="color8dafdb svgShape"
     clip-rule="evenodd"
     id="path8" />
  <path
     fill="#dba68d"
     fill-rule="evenodd"
     d="m 291,358.4 c -5.6,0 -10.2,-4.6 -10.2,-10.2 0,-5.6 4.6,-10.2 10.2,-10.2 5.6,0 10.2,4.6 10.2,10.2 0,5.7 -4.6,10.2 -10.2,10.2 z"
     class="color8dafdb svgShape"
     clip-rule="evenodd"
     id="path9" />
  <path
     fill="#dba68d"
     fill-rule="evenodd"
     d="m 335.5,358.4 c -5.6,0 -10.2,-4.6 -10.2,-10.2 0,-5.6 4.6,-10.2 10.2,-10.2 5.6,0 10.2,4.6 10.2,10.2 0,5.7 -4.6,10.2 -10.2,10.2 z"
     class="color8dafdb svgShape"
     clip-rule="evenodd"
     id="path10" />
  <path
     fill="#dba68d"
     fill-rule="evenodd"
     d="m 332.9,248.3 h -172 c -5,0 -9.1,4.1 -9.1,9.1 v 99.5 c 0,5 4.1,9.1 9.1,9.1 h 122.5 l 31.8,32.3 c 2.3,2.2 4.3,1.6 4.4,0.6 V 366 h 13.2 c 5,0 9.1,-4.1 9.1,-9.1 v -99.5 c 0.1,-5.1 -4,-9.1 -9,-9.1 z"
     class="color8dafdb svgShape"
     clip-rule="evenodd"
     id="path11" />
  <path
     fill="#ffe5d9"
     fill-rule="evenodd"
     d="m 339.5,242.8 h -172 c -5,0 -9.1,4.1 -9.1,9.1 v 99.5 c 0,5 4.1,9.1 9.1,9.1 H 290 l 31.8,32.3 c 2.3,2.2 4.3,1.6 4.4,0.6 v -32.9 h 13.2 c 5,0 9.1,-4.1 9.1,-9.1 v -99.5 c 0.1,-5 -4,-9.1 -9,-9.1 z"
     class="colorffffff svgShape"
     clip-rule="evenodd"
     id="path12" />
  <path
     fill="#dba68d"
     fill-rule="evenodd"
     d="m 297.2,311.8 c 5.6,0 10.2,-4.6 10.2,-10.2 0,-5.6 -4.6,-10.2 -10.2,-10.2 -5.6,0 -10.2,4.6 -10.2,10.2 0,5.7 4.6,10.2 10.2,10.2 z"
     class="color8dafdb svgShape"
     clip-rule="evenodd"
     id="path13" />
  <path
     fill="#dba68d"
     fill-rule="evenodd"
     d="m 254.2,311.8 c 5.6,0 10.2,-4.6 10.2,-10.2 0,-5.6 -4.6,-10.2 -10.2,-10.2 -5.6,0 -10.2,4.6 -10.2,10.2 0,5.7 4.6,10.2 10.2,10.2 z"
     class="color8dafdb svgShape"
     clip-rule="evenodd"
     id="path14" />
  <path
     fill="#dba68d"
     fill-rule="evenodd"
     d="m 209.7,311.8 c 5.6,0 10.2,-4.6 10.2,-10.2 0,-5.6 -4.6,-10.2 -10.2,-10.2 -5.6,0 -10.2,4.6 -10.2,10.2 0,5.7 4.6,10.2 10.2,10.2 z"
     class="color8dafdb svgShape"
     clip-rule="evenodd"
     id="path15" />
  <path
     fill="#a32306"
     fill-rule="evenodd"
     d="m 932.2,1570.7 322.2,-238.2 186.5,-137.2 c -8.5,-10.8 -20.8,-17.7 -35.5,-17.7 H 459 c -13.9,0 -27,6.9 -35.5,17.7 L 610,1332.5 Z"
     class="color0643a3 svgShape"
     clip-rule="evenodd"
     id="path16" />
  <path
     fill="#feab84"
     fill-rule="evenodd"
     d="m 932.2,820 322.2,238.2 186.5,137.2 c -8.5,10.8 -20.8,17.7 -35.5,17.7 H 459 c -13.9,0 -27,-6.9 -35.5,-17.7 L 610,1058.2 Z"
     class="color84b2fe svgShape"
     clip-rule="evenodd"
     id="path17" />
  <rect
     width="801.59998"
     height="807"
     x="531.39996"
     y="938.70001"
     fill="#ffe5d9"
     fill-rule="evenodd"
     class="colorffffff svgShape"
     clip-rule="evenodd"
     id="rect17" />
  <path
     fill="#feab84"
     fill-rule="evenodd"
     d="m 1440.9,1195.3 c 5.4,6.9 9.2,16.2 9.2,26.2 v 587.3 c 0,24.7 -20,43.9 -44.7,43.9 H 459 c -23.9,0 -43.9,-19.3 -43.9,-43.9 v -587.3 c 0,-10 3.1,-19.3 8.5,-26.2 l 186.5,137.2 322.2,238.2 322.2,-238.2 z"
     class="color84b2fe svgShape"
     clip-rule="evenodd"
     id="path18" />
  <path
     fill="#fe552c"
     fill-rule="evenodd"
     d="m 932.2,1459.7 -322.2,237.4 -186.5,138 c 7.7,10.8 20.8,17.7 35.5,17.7 h 946.5 c 14.6,0 27.7,-6.9 35.5,-17.7 l -186.5,-138 z"
     class="color2c7efe svgShape"
     clip-rule="evenodd"
     id="path19" />
  <path
     fill="#fe552c"
     d="m 1076.1,1195.6 c 0,20.1 -2.7,38.1 -8.2,53.9 -5.5,15.8 -13,29.1 -22.5,40.1 -9.6,10.9 -20.9,19.3 -34.2,25 -13.2,5.8 -27.6,8.6 -43,8.6 -10.4,0 -18.5,-2.7 -24.4,-8.2 -5.9,-5.5 -9.2,-12.7 -9.9,-21.7 -14,19.9 -32.4,29.9 -55.1,29.9 -9.3,0 -18,-1.7 -25.9,-5.2 -7.9,-3.5 -14.8,-8.3 -20.5,-14.7 -5.8,-6.3 -10.2,-14 -13.5,-23 -3.2,-9 -4.8,-19.1 -4.8,-30.3 0,-15.7 2.7,-30.7 8.2,-45.2 5.5,-14.5 12.6,-27.3 21.4,-38.5 8.8,-11.2 18.7,-20.1 29.7,-26.9 11,-6.8 22.2,-10.2 33.6,-10.2 25.7,0 44.4,7.7 56.3,23 l 4.1,-17.8 h 31.9 l -27.6,120 c -1.7,6.7 -2.9,12.4 -3.5,17.3 -0.6,4.8 -0.9,9.1 -0.9,12.9 0,8.4 3.2,12.6 9.7,12.6 10,0 19.4,-2.4 28.3,-7.2 8.9,-4.8 16.6,-11.6 23.2,-20.5 6.6,-8.9 11.8,-19.7 15.6,-32.2 3.8,-12.5 5.7,-26.8 5.7,-42.6 0,-16.2 -3.1,-31.2 -9.3,-45.1 -6.2,-13.8 -14.9,-25.8 -26,-36.1 -11.1,-10.2 -24.5,-18.2 -40.1,-24 -15.6,-5.8 -32.9,-8.6 -51.9,-8.6 -22,0 -42.2,4.2 -60.7,12.6 -18.5,8.4 -34.3,19.8 -47.6,34.2 -13.2,14.4 -23.5,31.2 -30.8,50.5 -7.3,19.3 -11,39.7 -11,61.2 0,21.6 3.5,40.8 10.4,57.6 7,16.7 17.1,30.9 30.3,42.6 13.2,11.6 29.4,20.4 48.4,26.4 19,6 40.7,9 64.8,9 30.3,0 55.4,-4.6 75.3,-13.8 l 13.1,21.9 c -26,11.4 -55.4,17.1 -88.2,17.1 -28.1,0 -53.3,-3.7 -75.6,-11.1 -22.3,-7.4 -41.3,-18.1 -56.8,-31.9 -15.5,-13.9 -27.4,-30.7 -35.7,-50.6 -8.3,-19.9 -12.4,-42.2 -12.4,-67.1 0,-52.4 16.7,-96.2 50.1,-131.4 33.7,-34.6 76,-52 126.9,-52 23.4,0 44.5,3.5 63.4,10.6 18.9,7.1 35,16.9 48.2,29.3 13.3,12.5 23.5,27.2 30.7,44.3 7.2,16.9 10.8,35.4 10.8,55.3 z M 957,1178.2 c -9.8,-14.8 -25.7,-22.3 -47.6,-22.3 -8.2,0 -16,2.8 -23.5,8.3 -7.5,5.5 -14.1,12.7 -19.9,21.5 -5.8,8.8 -10.4,18.8 -13.8,29.9 -3.5,11.1 -5.2,22.2 -5.2,33.4 0,32.1 12.7,48.2 38.2,48.2 6.3,0 12.5,-1.4 18.6,-4.2 6,-2.8 11.7,-6.7 16.8,-11.7 5.2,-5 9.8,-11 13.7,-18.1 4,-7.1 6.9,-15 8.9,-23.7 z"
     class="color2c7efe svgShape"
     id="path20" />
  <g
     class="color000000 svgShape"
     id="g49"
     transform="translate(-77.4,-74)">
    <path
       fill="#a32306"
       fill-rule="evenodd"
       d="m 571.7,1347.1 -44,43.3 c -34.7,24 -133.1,-2.9 -106.8,63.7 l 177.3,18.9 -10.8,-78.1 z"
       class="color0643a3 svgShape"
       clip-rule="evenodd"
       id="path21" />
    <path
       fill="#591202"
       fill-rule="evenodd"
       d="m 596.5,1461.5 -179.8,-22.4 c 0.6,4.3 1.8,9.3 4.1,15 l 177.3,18.9 z"
       class="color022459 svgShape"
       clip-rule="evenodd"
       id="path22" />
    <path
       fill="#ffe5d9"
       fill-rule="evenodd"
       d="m 470.1,1407.8 c 3,0.4 5.1,3.1 4.8,6.1 -0.4,3 -3.1,5.1 -6.1,4.8 -3,-0.4 -5.1,-3.1 -4.8,-6.1 0.3,-3 3.1,-5.1 6.1,-4.8 z"
       class="colorffffff svgShape"
       clip-rule="evenodd"
       id="path23" />
    <path
       fill="#ffe5d9"
       fill-rule="evenodd"
       d="m 492.9,1406.2 c 3,0.4 5.1,3.1 4.8,6.1 -0.4,3 -3.1,5.1 -6.1,4.8 -3,-0.4 -5.1,-3.1 -4.8,-6.2 0.4,-3 3.2,-5.1 6.1,-4.7 z"
       class="colorffffff svgShape"
       clip-rule="evenodd"
       id="path24" />
    <path
       fill="#ffe5d9"
       fill-rule="evenodd"
       d="m 514.6,1403.3 c 3,0.4 5.1,3.1 4.8,6.1 -0.4,3 -3.1,5.1 -6.2,4.8 -3,-0.4 -5.1,-3.1 -4.7,-6.2 0.3,-2.9 3,-5.1 6.1,-4.7 z"
       class="colorffffff svgShape"
       clip-rule="evenodd"
       id="path25" />
    <path
       fill="#fe552c"
       fill-rule="evenodd"
       d="m 710.4,1346.4 -14.7,60 c -16.9,38.6 -114.8,67.5 -57.3,110.3 l 160.6,-77.3 -50.2,-60.8 z"
       class="color2c7efe svgShape"
       clip-rule="evenodd"
       id="path26" />
    <path
       fill="#91250d"
       fill-rule="evenodd"
       d="M 791.7,1430.7 627,1506.2 c 2.8,3.5 6.5,7 11.5,10.7 l 160.6,-77.3 z"
       class="color0d4391 svgShape"
       clip-rule="evenodd"
       id="path27" />
    <path
       fill="#ffe5d9"
       fill-rule="evenodd"
       d="m 655.9,1451.5 c 2.7,-1.3 6,-0.1 7.3,2.7 1.3,2.7 0.1,6 -2.7,7.3 -2.8,1.3 -6,0.1 -7.3,-2.7 -1.2,-2.8 0,-6.1 2.7,-7.3 z"
       class="colorffffff svgShape"
       clip-rule="evenodd"
       id="path28" />
    <path
       fill="#ffe5d9"
       fill-rule="evenodd"
       d="m 674.4,1438.1 c 2.8,-1.3 6,-0.1 7.3,2.7 1.3,2.8 0.1,6 -2.7,7.3 -2.7,1.3 -6,0.1 -7.3,-2.7 -1.2,-2.9 0,-6.1 2.7,-7.3 z"
       class="colorffffff svgShape"
       clip-rule="evenodd"
       id="path29" />
    <path
       fill="#ffe5d9"
       fill-rule="evenodd"
       d="m 691.3,1424.3 c 2.8,-1.3 6,-0.1 7.3,2.7 1.3,2.8 0.1,6 -2.6,7.3 -2.8,1.3 -6,0.1 -7.3,-2.7 -1.3,-2.8 -0.1,-6.1 2.6,-7.3 z"
       class="colorffffff svgShape"
       clip-rule="evenodd"
       id="path30" />
    <polygon
       fill="#591202"
       fill-rule="evenodd"
       points="526.7,1386.1 588.7,1391.3 635.7,1141.9 536.9,1090.1 "
       class="color022459 svgShape"
       clip-rule="evenodd"
       id="polygon30" />
    <path
       fill="#91250d"
       fill-rule="evenodd"
       d="m 795.2,846.4 -81.6,85.7 c -30.1,14.2 -60.3,28.3 -90.4,42.5 -122.8,65.6 -110.7,85.4 -68.7,174.5 l 140.2,250.5 56.8,-23.8 c -29.1,-89.4 -69.9,-182.8 -99,-272.3 77.4,-76.9 260.1,2.4 216.1,-192.8 z"
       class="color0d4391 svgShape"
       clip-rule="evenodd"
       id="path31" />
    <path
       fill="#ffb19e"
       fill-rule="evenodd"
       d="m 636.3,587.6 -23,-10.9 c 4.2,-10.9 8.4,-21.6 12.7,-32.5 -6.8,-21.1 1.1,-52.1 9.2,-58.4 15.9,-11.8 48.2,-4.4 42.2,19.6 -3.9,30.3 -29,43 -41.1,82.2 z"
       class="colorffcdad svgShape"
       clip-rule="evenodd"
       id="path32" />
    <path
       fill="#fe552c"
       fill-rule="evenodd"
       d="m 670.7,453.1 c 6.3,3.4 12.7,7 19,10.4 6.3,3.4 12.7,6.8 18.8,10.2 2.1,1.1 2.9,3.9 1.6,6 -6.5,11 -13.1,22.1 -19.8,33.3 -6.7,11.4 -13.5,22.7 -20.3,34.4 -1.3,2.1 -4.2,3.1 -6.5,1.9 -6.7,-3.4 -13.1,-6.7 -19.8,-10.1 -6.7,-3.2 -13.3,-6.7 -20.1,-10.1 -2.3,-1.3 -3.1,-4.1 -1.8,-6.3 7.3,-11.5 14.4,-23.2 21.6,-34.6 7,-11.4 14,-22.6 20.8,-33.6 1.4,-2 4.3,-2.8 6.5,-1.5 z"
       class="color2c7efe svgShape"
       clip-rule="evenodd"
       id="path33" />
    <linearGradient
       id="a"
       x1="-837.45203"
       x2="-656.45099"
       y1="635.09302"
       y2="635.09302"
       gradientTransform="matrix(-1,0,0,1,-72.113,0)"
       gradientUnits="userSpaceOnUse">
      <stop
         class="stopColor8183f1 svgShape"
         offset="0"
         stop-color="#f19781"
         id="stop33" />
      <stop
         class="stopColor8988f2 svgShape"
         offset=".216"
         stop-color="#f29d88"
         id="stop34" />
      <stop
         class="stopColor9e97f4 svgShape"
         offset=".548"
         stop-color="#f4b497"
         id="stop35" />
      <stop
         class="stopColorc2aff8 svgShape"
         offset=".954"
         stop-color="#f8c6af"
         id="stop36" />
      <stop
         class="stopColorc6b2f9 svgShape"
         offset="1"
         stop-color="#f9c8b2"
         id="stop37" />
    </linearGradient>
    <path
       fill="url(#a)"
       fill-rule="evenodd"
       d="m 765.3,705.1 -3.1,-108.5 -126.2,53.3 16.2,-93.5 -33.6,-7.8 -32.9,123.5 c -7.3,45.1 14.9,53.5 49.2,47.7 z"
       clip-rule="evenodd"
       id="path37"
       style="fill:url(#a)" />
    <path
       fill="#f19781"
       fill-rule="evenodd"
       d="m 784.2,566.7 -45.6,24.5 c -11.5,12.5 -28.9,24.5 -26.9,58.6 v 282.3 l 157,-21.2 c -20.6,-103.5 4.7,-296.2 -21.2,-312.2 -15.9,-9.8 -40.8,-24.9 -63.3,-32 z"
       class="color8183f1 svgShape"
       clip-rule="evenodd"
       id="path38" />
    <path
       fill="#f89780"
       fill-rule="evenodd"
       d="m 726.1,567.8 42.3,-27.4 20.1,31.2 C 772.6,582 760.6,649.8 741,602.8 Z"
       class="colorf8a780 svgShape"
       clip-rule="evenodd"
       id="path39" />
    <path
       fill="#ffb19e"
       fill-rule="evenodd"
       d="m 768.1,444.8 -111.8,23.9 c 3.2,46.6 40.1,126.1 68.8,113.4 61.5,-32.9 61.5,-59.5 43,-137.3 z"
       class="colorffcdad svgShape"
       clip-rule="evenodd"
       id="path40" />
    <path
       fill="#521103"
       fill-rule="evenodd"
       d="m 684.6,553.7 c -1.3,-15.3 41,-10.9 49,-24 l 18.5,-75.3 c -0.6,52.4 24.5,75.9 6.8,104.7 -8.3,8 -19.3,15.3 -33.7,23 -13.2,5.9 -28,-7.6 -40.6,-28.4 z"
       class="color060352 svgShape"
       clip-rule="evenodd"
       id="path41" />
    <path
       fill="#ffe5d9"
       fill-rule="evenodd"
       d="m 739.1,532.6 c 0.8,1.6 1.5,3.4 1.9,5.2 3.4,13.8 -5,27.9 -18.8,31.3 -7,1.6 -13.8,0.5 -19.5,-2.9 22.3,-6.5 37.8,-20.8 36.4,-33.6 z"
       class="colorffffff svgShape"
       clip-rule="evenodd"
       id="path42" />
    <path
       fill="#521103"
       fill-rule="evenodd"
       d="m 745.7,465.5 -88.3,13.6 c -15.9,6.5 -55.2,-23.5 -32.8,-63.1 24.5,-33.3 69.8,4.2 123.6,-1.1 45.1,6.3 52.1,55.2 30.5,100.6 -26.2,5.3 -16.3,-52.8 -33,-50 z"
       class="color060352 svgShape"
       clip-rule="evenodd"
       id="path43" />
    <path
       fill="#ffb19e"
       fill-rule="evenodd"
       d="m 758.5,502.1 c -1.5,-7.8 -2.9,-15.6 -4.2,-23.4 -1.6,-19.3 14.6,-20.8 16.5,-6.2 1.9,19.9 -5.4,18.6 -12.3,29.6 z"
       class="colorffcdad svgShape"
       clip-rule="evenodd"
       id="path44" />
    <path
       fill="#ffb19e"
       fill-rule="evenodd"
       d="m 677.2,854.5 -26.4,-4.1 c -15.6,-0.6 -31,-1.3 -46.6,-1.9 -29.9,-2.9 0,7.3 20.1,15.4 -9.7,25.6 -46.9,45.1 -42.8,63.6 5.8,15.6 36.2,-5 42,-9.7 29.5,-21.7 29.2,-28.9 39.4,-51.1 z"
       class="colorffcdad svgShape"
       clip-rule="evenodd"
       id="path45" />
    <linearGradient
       id="b"
       x1="-928.33099"
       x2="-709.76099"
       y1="729.78302"
       y2="729.78302"
       gradientTransform="matrix(-1,0,0,1,-72.113,0)"
       gradientUnits="userSpaceOnUse">
      <stop
         class="stopColor8183f1 svgShape"
         offset="0"
         stop-color="#f19781"
         id="stop45" />
      <stop
         class="stopColor8988f2 svgShape"
         offset=".216"
         stop-color="#f29d88"
         id="stop46" />
      <stop
         class="stopColor9e97f4 svgShape"
         offset=".548"
         stop-color="#f4b497"
         id="stop47" />
      <stop
         class="stopColorc2aff8 svgShape"
         offset=".954"
         stop-color="#f8c6af"
         id="stop48" />
      <stop
         class="stopColorc6b2f9 svgShape"
         offset="1"
         stop-color="#f9c8b2"
         id="stop49" />
    </linearGradient>
    <path
       fill="url(#b)"
       fill-rule="evenodd"
       d="m 781.7,634.7 c 21.6,-74.3 81.4,-48.8 73.8,-1.9 l -26.1,98.6 c -6.7,16.9 -13.5,25.6 -25,34.7 L 663.8,871.7 637.7,844.1 771,722.3 c 3.7,-27.7 6.2,-59.2 10.7,-87.6 z"
       clip-rule="evenodd"
       id="path49"
       style="fill:url(#b)" />
  </g>
  <g
     class="color000000 svgShape"
     id="g56"
     transform="translate(-77.4,-74)">
    <linearGradient
       id="c"
       x1="2840.345"
       x2="3424.2261"
       y1="366.30301"
       y2="366.30301"
       gradientTransform="matrix(-1,0,0,1,4490.488,0)"
       gradientUnits="userSpaceOnUse">
      <stop
         class="stopColordd4a71 svgShape"
         offset="0"
         stop-color="#e1684d"
         id="stop50" />
      <stop
         class="stopColorea718b svgShape"
         offset="1"
         stop-color="#ea8771"
         id="stop51" />
    </linearGradient>
    <path
       fill="url(#c)"
       d="m 1358.2,658.5 c -160.8,0 -291.9,-131.3 -291.9,-292.3 0,-160.9 131.1,-292.2 291.9,-292.2 160.8,0 291.9,131.3 291.9,292.2 0,161 -131.1,292.3 -291.9,292.3 z"
       id="path51"
       style="fill:url(#c)" />
    <linearGradient
       id="d"
       x1="3331.481"
       x2="3474.96"
       y1="648.47302"
       y2="648.47302"
       gradientTransform="matrix(-1,0,0,1,4490.488,0)"
       gradientUnits="userSpaceOnUse">
      <stop
         class="stopColordd4a71 svgShape"
         offset="0"
         stop-color="#e1684d"
         id="stop52" />
      <stop
         class="stopColorea718b svgShape"
         offset="1"
         stop-color="#ea8771"
         id="stop53" />
    </linearGradient>
    <path
       fill="url(#d)"
       d="m 1087.3,709 c -39.5,0 -71.8,-27.2 -71.8,-60.6 0,-33.4 32.2,-60.6 71.8,-60.6 39.5,0 71.7,27.2 71.7,60.6 0,33.4 -32.2,60.6 -71.7,60.6 z"
       id="path53"
       style="fill:url(#d)" />
    <linearGradient
       id="e"
       x1="3470.832"
       x2="3547.323"
       y1="738.48199"
       y2="738.48199"
       gradientTransform="matrix(-1,0,0,1,4490.488,0)"
       gradientUnits="userSpaceOnUse">
      <stop
         class="stopColordd4a71 svgShape"
         offset="0"
         stop-color="#e1684d"
         id="stop54" />
      <stop
         class="stopColorea718b svgShape"
         offset="1"
         stop-color="#ea8771"
         id="stop55" />
    </linearGradient>
    <path
       fill="url(#e)"
       d="m 981.4,768.8 c -21.1,0 -38.2,-13.6 -38.2,-30.3 0,-16.7 17.1,-30.3 38.2,-30.3 21,0 38.2,13.6 38.2,30.3 0.1,16.6 -17.1,30.3 -38.2,30.3 z"
       id="path55"
       style="fill:url(#e)" />
    <path
       fill="#ffe5d9"
       fill-rule="evenodd"
       d="m 1486.2,183.9 c -19.5,-16.2 -76.5,0 -101,25.6 l -8,66.7 c 6.4,31.1 26.1,38 44.9,46.5 l -81.5,118.2 c -11.5,-13.3 -34,-30.2 -53.7,-28.8 l -65.4,29.2 c -23.4,32.4 -7,94.6 10.4,108.1 106.5,33.7 345.4,-202 254.3,-365.5 z"
       class="colorffffff svgShape"
       clip-rule="evenodd"
       id="path56" />
  </g>
  <g
     class="color000000 svgShape"
     id="g62"
     transform="translate(-77.4,-74)">
    <path
       fill="#ae3e25"
       fill-rule="evenodd"
       d="m 1689.3,1770 c -0.1,0.2 -0.1,0.5 -0.2,0.7 -0.1,0.4 -0.2,0.7 -0.3,1.1 0,0 0,0 0,0 -0.1,0.2 -0.1,0.4 -0.2,0.5 -0.1,0.4 -0.3,0.7 -0.4,1 -0.1,0.2 -0.1,0.3 -0.2,0.5 -0.1,0.2 -0.2,0.4 -0.3,0.6 -0.1,0.3 -0.3,0.5 -0.4,0.7 -0.1,0.2 -0.3,0.5 -0.4,0.7 -0.1,0.2 -0.3,0.5 -0.4,0.7 -0.1,0.2 -0.3,0.4 -0.4,0.6 -0.6,0.9 -1.3,1.7 -2.1,2.5 -0.1,0.1 -0.2,0.2 -0.2,0.3 0,0 -0.1,0.1 -0.1,0.1 -0.1,0.1 -0.3,0.3 -0.4,0.4 -0.8,0.8 -1.6,1.5 -2.5,2.2 -0.9,0.7 -1.8,1.3 -2.7,1.9 0,0 0,0 0,0 -0.4,0.3 -0.8,0.5 -1.2,0.7 -0.4,0.2 -0.8,0.5 -1.2,0.7 0,0 0,0 0,0 -3.4,1.9 -7.2,3.5 -10.8,4.8 -0.7,0.3 -1.4,0.5 -2.2,0.8 -0.4,0.1 -0.7,0.2 -1.1,0.4 -0.7,0.2 -1.4,0.5 -2.1,0.7 -2.6,0.9 -4.9,1.6 -7,2.4 -0.4,0.2 -0.8,0.3 -1.2,0.5 -0.1,0.1 -0.3,0.1 -0.4,0.2 -0.2,0.1 -0.5,0.2 -0.7,0.3 -0.2,0.1 -0.5,0.2 -0.7,0.3 -0.2,0.1 -0.4,0.2 -0.6,0.3 -0.3,0.2 -0.6,0.3 -0.9,0.5 -0.5,0.3 -1,0.7 -1.4,1 -0.1,0.1 -0.2,0.2 -0.3,0.3 -0.6,0.7 -0.9,1.4 -0.8,2.2 2.9,10.4 38.2,-2.2 33.5,19.9 -13.5,23.6 -74.1,0 -76.7,8.2 -2.3,5.9 31.5,17.6 17.6,28.1 -20.2,15.2 -66,-15.6 -73.7,-6.9 -19.5,19.9 42.2,28.5 21.8,42.9 -14.4,11.1 -48.3,-0.9 -59.6,6.5 -5.1,3.8 21.4,8.9 13.7,19.9 -5.9,6.8 -15.4,12.3 -25.1,18.2 h -59.3 c -0.9,-1.2 -1.9,-2.5 -2.9,-3.8 0.5,-2.9 0.8,-5.9 1,-9 1.6,-21.4 -1,-48.5 4.3,-64.9 1.8,-5.5 4.4,-9.8 8.4,-12.3 1.4,-0.7 2.7,-1 3.9,-1 5,-0.1 7.6,5.7 9.5,12 2.7,9 4,19.2 8.5,16.4 2,-0.9 3.5,-2.4 4.6,-4.4 4.3,-7.9 2.2,-23.7 1.8,-37.8 -0.3,-8.4 0.1,-16.3 2.8,-21.6 1.9,-3.7 4.9,-6.1 9.6,-6.7 2.8,-0.2 5,0 6.9,0.6 10.5,3.4 7.8,18 9.1,26.3 0.6,3.6 1.9,6 5.4,5.8 0,0 0.1,0 0.2,0 12.6,-5.4 4.5,-25.9 4.6,-41.2 0,-6.8 1.8,-12.6 7.7,-15.5 2.2,-1.1 4.1,-1.8 5.8,-2.1 14.7,-2.5 10.9,24.3 23.6,22.6 11.3,1.4 2.4,-62.3 41.6,-58.4 38,9.9 -9.1,33.2 3.6,44.7 11.6,6.5 74.1,-66.3 90.4,-33.6 2.2,6.6 2.4,12 1.2,16.5 z"
       class="color65b646 svgShape"
       clip-rule="evenodd"
       id="path57" />
    <path
       fill="#ae3e25"
       fill-rule="evenodd"
       d="m 1497.6,1769.1 c 1.7,5.7 32.6,-4.6 31.6,9 0,0.7 -0.2,1.4 -0.4,2.2 -1.7,6.4 -6.7,11.4 -13.2,15.5 -5.7,3.6 -12.5,6.5 -19.3,9.1 -5.8,2.2 -11.6,4.2 -16.5,6.1 -7.6,3 -13.1,5.9 -13.3,9.5 -1,8.8 3.8,11.6 10.5,12.2 8.9,0.7 21.4,-2.6 28.4,-1.4 3.4,0.6 5.5,2.2 5.4,5.8 0,1 -0.2,2.3 -0.6,3.7 -3.3,13.1 -23,22.9 -34.7,32.3 -4,3.2 -7,6.4 -8.1,9.6 -0.7,2.6 3.1,1.9 7.9,1.2 6.5,-0.9 14.8,-1.8 15.2,5.9 0,0.3 0,0.6 -0.1,0.9 -1,13.8 -10.2,30.2 -14.2,46.9 H 1419 c -9.5,-12.7 -20.6,-25.7 -26.8,-37.5 -1.9,-3.5 -3.3,-6.9 -4.1,-10.2 -1,-4 -1.1,-7.7 0.1,-11.1 6,-12.6 21.1,4.6 29.2,8.8 2.4,1.2 4.2,1.3 4.9,-0.8 9.6,-17.4 -47.2,-48.7 -28.8,-67.1 6.4,-5.8 11.6,-5.2 16,-2.2 4,2.7 7.4,7.2 10.6,10.8 3.7,4.2 7.1,7 10.5,3.8 3.4,-6.3 -0.1,-12.3 -5.5,-18.3 -3.1,-3.4 -6.9,-6.9 -10.4,-10.3 -7.4,-7.4 -13.5,-15.1 -9.4,-23.6 1.5,-3.2 3.1,-5.4 4.8,-6.6 9.8,-7.4 22.5,13.3 31.1,4.6 9.7,-5.9 -36.6,-50.5 -3.4,-71.6 36,-15.7 13.4,31.7 30.4,32.9 13.2,-2.1 17.3,-97.9 50.3,-82.2 1.1,0.8 2.2,1.6 3.2,2.4 0.9,0.8 1.8,1.6 2.6,2.4 0.1,0.1 0.3,0.3 0.4,0.4 0.6,0.6 1.1,1.2 1.6,1.8 0.2,0.2 0.3,0.4 0.5,0.6 0.2,0.2 0.3,0.4 0.5,0.7 0,0 0,0 0,0 0.1,0.2 0.3,0.4 0.4,0.6 0,0 0.1,0.1 0.1,0.1 0.1,0.2 0.3,0.4 0.4,0.6 0.1,0.2 0.2,0.4 0.3,0.5 0.2,0.3 0.3,0.5 0.4,0.8 0.1,0.2 0.2,0.4 0.3,0.6 0.2,0.5 0.5,1 0.7,1.5 0.1,0.2 0.2,0.4 0.2,0.6 0.1,0.2 0.1,0.4 0.2,0.5 0.1,0.3 0.2,0.5 0.3,0.8 0.1,0.2 0.1,0.4 0.2,0.7 0,0 0,0 0,0 0.1,0.2 0.1,0.4 0.1,0.6 0,0.2 0.1,0.5 0.1,0.7 0,0 0,0 0,0 0,0.2 0.1,0.4 0.1,0.7 0,0 0,0 0,0 0,0.2 0.1,0.4 0.1,0.7 0,0.2 0,0.4 0.1,0.6 0,0 0,0.1 0,0.2 0,0.2 0,0.4 0,0.6 0,0.2 0,0.3 0,0.5 0.1,1.9 -0.1,3.8 -0.4,5.6 -0.4,2.3 -1.1,4.7 -2,6.9 -0.2,0.4 -0.3,0.8 -0.5,1.2 0,0 0,0 0,0 -0.2,0.4 -0.4,0.8 -0.5,1.2 0,0 0,0 0,0 -0.4,0.8 -0.8,1.6 -1.2,2.4 0,0 0,0 0,0 -0.3,0.6 -0.6,1.2 -0.9,1.8 -0.2,0.4 -0.4,0.8 -0.7,1.2 0,0 0,0 0,0 -2.8,5 -6.1,9.6 -8.5,13.4 0,0 0,0 0,0 -0.6,1 -1.2,2 -1.7,2.9 0,0 0,0 0,0 -0.2,0.4 -0.4,0.8 -0.6,1.1 -0.1,0.2 -0.2,0.5 -0.3,0.7 -0.1,0.2 -0.2,0.5 -0.3,0.7 0,0 0,0 0,0 0,0.1 -0.1,0.3 -0.1,0.4 -0.3,1.1 -0.4,2.1 -0.1,2.9 0.1,0.2 0.1,0.3 0.2,0.5 0.1,0.1 0.2,0.3 0.3,0.4 8.7,6.4 28.6,-25.3 38.6,-5.1 4.1,26.7 -58.1,45.6 -55,53.7 z"
       class="color65b646 svgShape"
       clip-rule="evenodd"
       id="path58" />
    <path
       fill="#ae3e25"
       fill-rule="evenodd"
       d="m 1475.3,1883.7 c -1,9.7 -3.8,20.8 -6.5,31.9 -1.8,7.4 -3.6,14.9 -4.8,21.8 h -60.2 c -8.7,-9 -17.8,-17.3 -22.2,-26.2 -2.6,-6.9 4.4,-9.5 10.5,-11.3 5,-1.5 9.4,-2.4 7.6,-4.6 -2.4,-2.6 -6.6,-4.3 -11.7,-5.6 -14.5,-3.8 -36.2,-4.7 -44.5,-15.3 -16.2,-18.9 45.7,-12.2 31.6,-36.2 -5.3,-10.4 -57.3,8.4 -73.1,-11.3 -10.9,-13.5 24.7,-16.7 24,-22.9 -0.5,-8.6 -65,-0.5 -72.4,-26.7 0.9,-22.6 32,-1.7 37.4,-11.1 0.5,-1.3 -0.1,-2.6 -1.5,-4 -0.1,-0.1 -0.1,-0.1 -0.2,-0.2 -1.1,-1.1 -2.7,-2.3 -4.6,-3.5 -0.2,-0.1 -0.4,-0.3 -0.7,-0.5 -0.4,-0.3 -0.9,-0.6 -1.4,-0.9 0,0 0,0 0,0 -0.2,-0.1 -0.4,-0.2 -0.5,-0.4 -0.3,-0.2 -0.7,-0.4 -1,-0.7 -0.2,-0.1 -0.4,-0.3 -0.7,-0.4 -0.1,-0.1 -0.3,-0.2 -0.4,-0.2 -0.3,-0.2 -0.5,-0.3 -0.8,-0.5 -0.8,-0.5 -1.6,-1 -2.4,-1.6 -0.3,-0.2 -0.5,-0.4 -0.8,-0.5 -0.3,-0.2 -0.5,-0.4 -0.8,-0.6 -0.3,-0.2 -0.5,-0.4 -0.8,-0.6 -3.4,-2.3 -6.9,-5 -9.9,-8 -0.4,-0.4 -0.7,-0.7 -1,-1.1 -0.5,-0.5 -0.9,-1 -1.3,-1.5 -0.5,-0.6 -1,-1.3 -1.5,-2 -0.2,-0.3 -0.4,-0.5 -0.6,-0.8 -0.2,-0.3 -0.4,-0.6 -0.5,-0.8 0,0 0,0 0,0 -0.1,-0.2 -0.2,-0.4 -0.4,-0.6 -0.1,-0.2 -0.2,-0.4 -0.3,-0.6 -0.1,-0.1 -0.1,-0.2 -0.2,-0.4 l -0.1,-0.2 c 0,0 0,0 0,-0.1 0,0 0,-0.1 -0.1,-0.2 -0.1,-0.2 -0.2,-0.3 -0.2,-0.5 v 0 c 0,-0.1 -0.1,-0.2 -0.1,-0.2 -0.1,-0.2 -0.2,-0.5 -0.3,-0.7 -0.2,-0.5 -0.4,-0.9 -0.5,-1.4 0,0 0,0 0,-0.1 -0.1,-0.2 -0.2,-0.5 -0.2,-0.7 -0.1,-0.3 -0.2,-0.7 -0.3,-1 -0.1,-0.3 -0.1,-0.5 -0.2,-0.8 0,-0.1 0,-0.2 -0.1,-0.2 -0.1,-0.3 -0.1,-0.6 -0.2,-0.9 0,0 0,-0.1 0,-0.1 -0.8,-5.4 0.4,-11.7 4.8,-18.9 23.8,-27.7 66.6,58.1 79.4,54.6 15.1,-8 -24.9,-42.1 14.4,-42.4 39,5.7 14.8,65.3 26.1,66.7 12.2,4.9 14.9,-23.2 29.2,-15.8 1.4,0.7 2.8,1.7 4.4,3.1 7.6,6.4 4.4,16.7 0.3,27.1 -1.9,4.8 -3.9,9.6 -5.2,14 -2,6.8 -2.1,12.9 3,16.8 4,1.4 6,-1.6 7.5,-6 1.5,-4.3 2.7,-10 5,-14.5 2.8,-5.4 7.4,-8.9 16.3,-5.9 16.5,6.3 3.8,32.2 -1.1,51.9 -2.3,9.3 -2.9,17.3 2.2,21.1 1.9,2 3.8,0.4 5.9,-2.8 3.8,-5.7 8.1,-16.4 13.7,-19.6 2.5,-1.5 5.3,-1.4 8.3,1.2 2.6,2.8 4.1,6.5 4.8,10.8 0.1,0.8 0.2,1.7 0.3,2.5 0.1,3.6 0,7.2 -0.4,11.1 z"
       class="color65b646 svgShape"
       clip-rule="evenodd"
       id="path59" />
    <path
       fill="#cb7c69"
       fill-rule="evenodd"
       d="m 1689.1,1770.8 c -0.1,0.4 -0.2,0.7 -0.3,1.1 0,0 0,0 0,0 -0.1,0.2 -0.1,0.4 -0.2,0.5 -0.1,0.4 -0.3,0.7 -0.4,1 -0.1,0.2 -0.1,0.3 -0.2,0.5 -0.1,0.2 -0.2,0.4 -0.3,0.6 -0.1,0.3 -0.3,0.5 -0.4,0.7 -0.1,0.2 -0.3,0.5 -0.4,0.7 -0.1,0.2 -0.3,0.5 -0.4,0.7 -0.1,0.2 -0.3,0.4 -0.4,0.6 -0.6,0.9 -1.3,1.7 -2.1,2.5 -0.1,0.1 -0.3,0.3 -0.4,0.4 -0.1,0.1 -0.3,0.3 -0.4,0.4 -0.8,0.8 -1.6,1.5 -2.5,2.2 -0.9,0.7 -1.8,1.3 -2.7,1.9 0,0 0,0 0,0 -0.4,0.3 -0.8,0.5 -1.2,0.7 -0.4,0.2 -0.8,0.5 -1.2,0.7 0,0 0,0 0,0 -3.4,1.9 -7.2,3.5 -10.8,4.8 -0.7,0.3 -1.4,0.5 -2.2,0.8 -0.4,0.1 -0.7,0.2 -1.1,0.4 -0.7,0.2 -1.4,0.5 -2.1,0.7 -2.6,0.9 -4.9,1.6 -7,2.4 -0.4,0.2 -0.8,0.3 -1.2,0.5 -0.1,0.1 -0.3,0.1 -0.4,0.2 -0.2,0.1 -0.5,0.2 -0.7,0.3 -0.2,0.1 -0.5,0.2 -0.7,0.3 -0.2,0.1 -0.4,0.2 -0.6,0.3 -0.3,0.2 -0.6,0.3 -0.9,0.5 -0.5,0.3 -1,0.7 -1.4,1 -0.1,0.1 -0.2,0.2 -0.3,0.3 -0.6,0.7 -0.9,1.4 -0.8,2.2 2.9,10.4 38.2,-2.2 33.5,19.9 -13.5,23.6 -74.1,0 -76.7,8.2 -2.3,5.9 31.5,17.6 17.6,28.1 -20.2,15.2 -66,-15.6 -73.7,-6.9 -19.5,19.9 42.2,28.5 21.8,42.9 -14.4,11.1 -48.3,-0.9 -59.6,6.5 -5.1,3.8 21.4,8.9 13.7,19.9 -5.9,6.8 -15.4,12.3 -25.1,18.2 h -44.6 c 4.9,-7.2 10.3,-14.5 16.2,-21.8 6.6,-8.3 13.8,-16.7 21.6,-25.1 16.6,-17.9 35.7,-35.8 56.9,-52.8 49.1,-39.6 99.9,-67.4 142.1,-80.3 1.3,5.1 1.1,9.5 0,13.3 z"
       class="color97cb69 svgShape"
       clip-rule="evenodd"
       id="path60" />
    <path
       fill="#cb7c69"
       fill-rule="evenodd"
       d="m 1497.6,1769.1 c 1.7,5.7 32.6,-4.6 31.6,9 0,0.7 -0.2,1.4 -0.4,2.2 -1.7,6.4 -6.7,11.4 -13.2,15.5 -5.7,3.6 -12.5,6.5 -19.3,9.1 -5.8,2.2 -11.6,4.2 -16.5,6.1 -7.6,3 -13.1,5.9 -13.3,9.5 -1,8.8 3.8,11.6 10.5,12.2 8.9,0.7 21.4,-2.6 28.4,-1.4 3.4,0.6 5.5,2.2 5.4,5.8 0,1 -0.2,2.3 -0.6,3.7 -3.3,13.1 -23,22.9 -34.7,32.3 -4,3.2 -7,6.4 -8.1,9.6 -0.7,2.6 3.1,1.9 7.9,1.2 6.5,-0.9 14.8,-1.8 15.2,5.9 0,0.3 0,0.6 -0.1,0.9 -1,13.8 -10.2,30.2 -14.2,46.9 h -29.8 c -0.7,-18.4 -0.1,-38.4 2.1,-59.5 1,-10.3 2.4,-20.9 4.2,-31.7 1.9,-11.8 4.3,-23.9 7.1,-36.1 14.1,-61.5 36.8,-114.7 62.1,-150.9 0.9,0.8 1.8,1.6 2.6,2.4 0.1,0.1 0.3,0.3 0.4,0.4 0.6,0.6 1.1,1.2 1.6,1.8 0.2,0.2 0.3,0.4 0.5,0.6 0.2,0.2 0.3,0.4 0.5,0.7 0,0 0,0 0,0 0.1,0.2 0.3,0.4 0.4,0.6 0,0 0.1,0.1 0.1,0.1 0.1,0.2 0.3,0.4 0.4,0.6 0.1,0.2 0.2,0.4 0.3,0.5 0.2,0.3 0.3,0.5 0.4,0.8 0.1,0.2 0.2,0.4 0.3,0.6 0.2,0.5 0.5,1 0.7,1.5 0.1,0.2 0.2,0.4 0.2,0.6 0.1,0.2 0.1,0.4 0.2,0.5 0.1,0.3 0.2,0.5 0.3,0.8 0.1,0.2 0.1,0.4 0.2,0.7 0,0 0,0 0,0 0.1,0.2 0.1,0.4 0.1,0.6 0,0.2 0.1,0.5 0.1,0.7 0,0 0,0 0,0 0,0.2 0.1,0.4 0.1,0.7 0,0 0,0 0,0 0,0.2 0.1,0.4 0.1,0.7 0,0.2 0,0.4 0.1,0.6 0,0 0,0.1 0,0.2 0,0.2 0,0.4 0,0.6 0,0.2 0,0.3 0,0.5 0.1,1.9 -0.1,3.8 -0.4,5.6 -0.4,2.3 -1.1,4.7 -2,6.9 -0.2,0.4 -0.3,0.8 -0.5,1.2 0,0 0,0 0,0 -0.2,0.4 -0.4,0.8 -0.5,1.2 0,0 0,0 0,0 -0.4,0.8 -0.8,1.6 -1.2,2.4 0,0 0,0 0,0 -0.3,0.6 -0.6,1.2 -0.9,1.8 -0.2,0.4 -0.4,0.8 -0.7,1.2 0,0 0,0 0,0 -2.9,5 -6.1,9.6 -8.5,13.4 0,0 0,0 0,0 -0.6,1 -1.2,2 -1.7,2.9 0,0 0,0 0,0 -0.2,0.4 -0.4,0.8 -0.6,1.1 -0.1,0.2 -0.2,0.5 -0.3,0.7 -0.1,0.2 -0.2,0.5 -0.3,0.7 0,0 0,0 0,0 0,0.1 -0.1,0.3 -0.1,0.4 -0.3,1.1 -0.4,2.1 -0.1,2.9 0.1,0.2 0.1,0.3 0.2,0.5 0.1,0.1 0.2,0.3 0.3,0.4 8.7,6.4 28.6,-25.3 38.6,-5.1 3.9,26.7 -58.3,45.6 -55.2,53.7 z"
       class="color97cb69 svgShape"
       clip-rule="evenodd"
       id="path61" />
    <path
       fill="#cb7c69"
       fill-rule="evenodd"
       d="m 1441.4,1937.4 h -37.7 c -8.7,-9 -17.8,-17.3 -22.2,-26.2 -2.6,-6.9 4.4,-9.5 10.5,-11.3 5,-1.5 9.4,-2.4 7.6,-4.6 -2.4,-2.6 -6.6,-4.3 -11.7,-5.6 -14.5,-3.8 -36.2,-4.7 -44.5,-15.3 -16.2,-18.9 45.7,-12.2 31.6,-36.2 -5.3,-10.4 -57.3,8.4 -73.1,-11.3 -10.9,-13.5 24.7,-16.7 24,-22.9 -0.5,-8.6 -65,-0.5 -72.4,-26.7 0.9,-22.6 32,-1.7 37.4,-11.1 0.5,-1.3 -0.1,-2.6 -1.5,-4 -0.1,-0.1 -0.1,-0.1 -0.2,-0.2 -1.1,-1.1 -2.7,-2.3 -4.6,-3.5 -0.2,-0.1 -0.4,-0.3 -0.7,-0.5 -0.4,-0.3 -0.9,-0.6 -1.4,-0.9 0,0 0,0 0,0 -0.2,-0.1 -0.4,-0.2 -0.5,-0.4 -0.3,-0.2 -0.7,-0.4 -1,-0.7 -0.2,-0.1 -0.4,-0.3 -0.7,-0.4 -0.1,-0.1 -0.3,-0.2 -0.4,-0.2 -0.3,-0.2 -0.5,-0.3 -0.8,-0.5 -0.8,-0.5 -1.6,-1 -2.4,-1.6 -0.3,-0.2 -0.5,-0.4 -0.8,-0.5 -0.3,-0.2 -0.5,-0.4 -0.8,-0.6 -0.3,-0.2 -0.5,-0.4 -0.8,-0.6 -3.4,-2.3 -6.9,-5 -9.9,-8 -0.4,-0.4 -0.7,-0.7 -1,-1.1 -0.5,-0.5 -0.9,-1 -1.3,-1.5 -0.5,-0.6 -1,-1.3 -1.5,-2 -0.2,-0.3 -0.4,-0.5 -0.6,-0.8 -0.2,-0.3 -0.4,-0.6 -0.5,-0.8 0,0 0,0 0,0 -0.1,-0.2 -0.2,-0.4 -0.4,-0.6 -0.1,-0.2 -0.2,-0.4 -0.3,-0.6 -0.1,-0.1 -0.1,-0.2 -0.2,-0.4 l -0.1,-0.2 c 0,-0.1 -0.1,-0.2 -0.1,-0.2 -0.1,-0.2 -0.2,-0.3 -0.2,-0.5 0,-0.1 -0.1,-0.2 -0.1,-0.2 -0.1,-0.2 -0.2,-0.5 -0.3,-0.7 -0.2,-0.5 -0.4,-0.9 -0.5,-1.4 0,0 0,0 0,-0.1 -0.1,-0.2 -0.2,-0.5 -0.2,-0.7 -1.6,-5.3 -1.3,-11.4 2.2,-18.5 37.8,22.8 80.3,62.1 118.2,112.5 15.4,20.4 28.8,41.1 40.1,61.3 7.1,12.6 13.3,25.1 18.6,37.1 1.7,4.6 3.5,8.9 5.2,13.2 z"
       class="color97cb69 svgShape"
       clip-rule="evenodd"
       id="path62" />
  </g>
  <g
     class="color000000 svgShape"
     id="g68"
     transform="translate(-77.4,-74)">
    <path
       fill="#ae3e25"
       fill-rule="evenodd"
       d="m 787.7,1739.2 c -0.1,0.3 -0.1,0.5 -0.2,0.8 -0.1,0.4 -0.3,0.8 -0.4,1.2 0,0 0,0 0,0.1 -0.1,0.2 -0.1,0.4 -0.2,0.6 -0.2,0.4 -0.3,0.8 -0.5,1.2 -0.1,0.2 -0.2,0.4 -0.2,0.5 -0.1,0.2 -0.2,0.5 -0.3,0.7 -0.1,0.3 -0.3,0.6 -0.5,0.8 -0.2,0.3 -0.3,0.5 -0.5,0.8 -0.2,0.3 -0.3,0.5 -0.5,0.8 -0.2,0.2 -0.3,0.4 -0.5,0.7 -0.7,1 -1.5,1.9 -2.3,2.8 -0.1,0.1 -0.2,0.2 -0.3,0.3 -0.1,0.1 -0.1,0.1 -0.2,0.2 -0.1,0.1 -0.3,0.3 -0.4,0.4 -0.9,0.9 -1.8,1.7 -2.8,2.4 -1,0.8 -2,1.5 -3.1,2.2 0,0 0,0 0,0 -0.4,0.3 -0.9,0.6 -1.3,0.8 -0.5,0.3 -0.9,0.5 -1.4,0.8 0,0 0,0 0,0 -3.9,2.2 -8.1,3.9 -12.2,5.4 -0.8,0.3 -1.6,0.6 -2.4,0.9 -0.4,0.1 -0.8,0.3 -1.2,0.4 -0.8,0.3 -1.6,0.5 -2.3,0.8 -2.9,1 -5.6,1.8 -7.9,2.7 -0.5,0.2 -0.9,0.4 -1.3,0.5 -0.1,0.1 -0.3,0.1 -0.4,0.2 -0.3,0.1 -0.6,0.2 -0.8,0.4 -0.3,0.1 -0.5,0.2 -0.8,0.4 -0.3,0.1 -0.5,0.2 -0.7,0.4 -0.3,0.2 -0.7,0.4 -1,0.6 -0.6,0.4 -1.1,0.8 -1.5,1.2 -0.1,0.1 -0.3,0.3 -0.4,0.4 -0.7,0.8 -1,1.6 -0.9,2.5 3.3,11.8 43.1,-2.5 37.8,22.4 -15.3,26.7 -83.6,0 -86.5,9.3 -2.6,6.6 35.5,19.9 19.9,31.7 -22.8,17.2 -74.5,-17.6 -83.2,-7.8 -22,22.4 47.6,32.2 24.6,48.4 -16.2,12.6 -54.5,-1 -67.2,7.3 -5.8,4.2 24.2,10 15.5,22.4 -6.7,7.7 -17.4,13.9 -28.4,20.5 H 504 c -1.1,-1.4 -2.2,-2.8 -3.3,-4.3 0.5,-3.2 0.9,-6.6 1.1,-10.2 1.8,-24.2 -1.1,-54.7 4.9,-73.3 2,-6.2 5,-11 9.5,-13.9 1.6,-0.8 3.1,-1.2 4.4,-1.2 5.6,-0.1 8.6,6.4 10.8,13.6 3.1,10.1 4.5,21.7 9.6,18.5 2.3,-1 4,-2.7 5.2,-4.9 4.9,-9 2.4,-26.7 2,-42.6 -0.3,-9.5 0.1,-18.4 3.2,-24.4 2.1,-4.2 5.5,-6.9 10.8,-7.6 3.1,-0.2 5.7,0 7.7,0.7 11.8,3.8 8.8,20.3 10.3,29.7 0.7,4.1 2.2,6.8 6.1,6.5 0.1,0 0.1,0 0.2,0 14.3,-6.1 5,-29.2 5.2,-46.4 0.1,-7.7 2,-14.2 8.7,-17.5 2.5,-1.3 4.7,-2 6.5,-2.4 16.6,-2.9 12.3,27.4 26.7,25.6 12.8,1.6 2.7,-70.3 46.9,-65.9 42.9,11.2 -10.2,37.5 4.1,50.4 13.1,7.3 83.6,-74.8 102,-37.9 2.2,7.1 2.4,13.3 1.1,18.4 z"
       class="color65b646 svgShape"
       clip-rule="evenodd"
       id="path63" />
    <path
       fill="#ae3e25"
       fill-rule="evenodd"
       d="m 571.3,1738.1 c 1.9,6.5 36.7,-5.1 35.6,10.2 -0.1,0.7 -0.2,1.6 -0.4,2.4 -1.9,7.2 -7.5,12.8 -14.8,17.4 -6.4,4.1 -14.2,7.4 -21.8,10.2 -6.6,2.5 -13.1,4.7 -18.6,6.9 -8.6,3.4 -14.8,6.6 -15,10.7 -1.1,9.9 4.2,13.1 11.8,13.7 10.1,0.8 24.1,-2.9 32.1,-1.6 3.8,0.6 6.2,2.5 6.1,6.5 0,1.2 -0.3,2.5 -0.7,4.1 -3.7,14.8 -26,25.8 -39.1,36.4 -4.5,3.6 -7.9,7.2 -9.2,10.9 -0.8,2.9 3.5,2.1 8.9,1.4 7.4,-1 16.6,-2 17.1,6.7 0,0.3 0,0.7 -0.1,1 -1.1,15.6 -11.5,34.1 -16.1,52.9 h -64.6 c -10.8,-14.3 -23.3,-29 -30.3,-42.3 -2.1,-4 -3.7,-7.8 -4.6,-11.5 -1.1,-4.5 -1.2,-8.7 0.2,-12.5 6.8,-14.3 23.8,5.1 33,9.9 2.7,1.4 4.7,1.5 5.6,-0.9 10.9,-19.6 -53.3,-54.9 -32.5,-75.7 7.2,-6.6 13,-5.9 18.1,-2.5 4.5,3 8.4,8.2 11.9,12.2 4.2,4.8 8,7.9 11.9,4.2 3.8,-7.1 -0.1,-13.8 -6.2,-20.6 -3.5,-3.9 -7.8,-7.7 -11.7,-11.7 -8.4,-8.4 -15.3,-17 -10.7,-26.6 1.7,-3.7 3.5,-6 5.4,-7.5 11.1,-8.4 25.4,15 35.1,5.2 11,-6.7 -41.3,-57 -3.8,-80.8 40.6,-17.7 15.1,35.8 34.4,37.1 14.9,-2.4 19.6,-110.4 56.8,-92.8 1.3,0.9 2.5,1.8 3.6,2.7 1.1,0.9 2,1.8 2.9,2.7 0.2,0.2 0.3,0.3 0.5,0.5 0.6,0.7 1.2,1.4 1.8,2.1 0.2,0.2 0.4,0.5 0.5,0.7 0.2,0.2 0.4,0.5 0.5,0.7 0,0 0,0 0,0 0.2,0.2 0.3,0.4 0.4,0.6 0,0.1 0.1,0.1 0.1,0.2 0.2,0.2 0.3,0.5 0.4,0.7 0.1,0.2 0.2,0.4 0.4,0.6 0.2,0.3 0.3,0.6 0.5,0.9 0.1,0.2 0.2,0.5 0.4,0.7 0.3,0.6 0.5,1.1 0.7,1.7 0.1,0.2 0.2,0.4 0.3,0.7 0.1,0.2 0.1,0.4 0.2,0.6 0.1,0.3 0.2,0.6 0.3,0.9 0.1,0.3 0.1,0.5 0.2,0.8 0,0 0,0 0,0.1 0.1,0.2 0.1,0.5 0.2,0.7 0.1,0.3 0.1,0.5 0.2,0.8 0,0 0,0 0,0 0,0.3 0.1,0.5 0.1,0.7 0,0 0,0 0,0 0,0.3 0.1,0.5 0.1,0.7 0,0.2 0.1,0.5 0.1,0.7 0,0.1 0,0.1 0,0.2 0,0.2 0,0.5 0.1,0.7 0,0.2 0,0.4 0,0.5 0.1,2.1 -0.1,4.2 -0.5,6.3 -0.5,2.6 -1.3,5.3 -2.3,7.8 -0.2,0.5 -0.4,0.9 -0.6,1.4 0,0 0,0 0,0 -0.2,0.5 -0.4,0.9 -0.6,1.4 0,0 0,0 0,0 -0.4,0.9 -0.9,1.8 -1.3,2.7 0,0 0,0 0,0 -0.3,0.7 -0.7,1.3 -1.1,2 -0.2,0.4 -0.5,0.9 -0.7,1.3 0,0 0,0 0,0 -3.2,5.6 -6.9,10.8 -9.5,15.1 0,0 0,0 0,0 -0.7,1.1 -1.4,2.2 -1.9,3.2 0,0 0,0 0,0 -0.2,0.4 -0.4,0.9 -0.6,1.3 -0.1,0.3 -0.2,0.5 -0.4,0.8 -0.1,0.3 -0.2,0.5 -0.3,0.8 0,0 0,0 0,0 -0.1,0.2 -0.1,0.3 -0.2,0.5 -0.4,1.3 -0.5,2.4 -0.1,3.2 0.1,0.2 0.2,0.4 0.3,0.5 0.1,0.2 0.2,0.3 0.4,0.5 9.8,7.2 32.3,-28.6 43.6,-5.8 4.2,30.7 -66,52 -62.5,61.1 z"
       class="color65b646 svgShape"
       clip-rule="evenodd"
       id="path64" />
    <path
       fill="#ae3e25"
       fill-rule="evenodd"
       d="m 546.1,1867.4 c -1.2,10.9 -4.3,23.5 -7.3,36 -2.1,8.4 -4.1,16.8 -5.5,24.6 h -67.9 c -9.8,-10.2 -20,-19.5 -25.1,-29.5 -3,-7.8 4.9,-10.8 11.9,-12.8 5.6,-1.7 10.6,-2.7 8.6,-5.2 -2.7,-2.9 -7.4,-4.8 -13.2,-6.3 -16.3,-4.3 -40.9,-5.3 -50.2,-17.2 -18.3,-21.3 51.6,-13.8 35.7,-40.9 -6,-11.7 -64.6,9.5 -82.5,-12.8 -12.3,-15.2 27.9,-18.8 27,-25.8 -0.5,-9.7 -73.4,-0.6 -81.7,-30.1 1,-25.4 36.1,-1.9 42.2,-12.5 0.6,-1.5 -0.2,-3 -1.7,-4.6 -0.1,-0.1 -0.1,-0.2 -0.2,-0.2 -1.3,-1.3 -3,-2.6 -5.1,-4 -0.3,-0.2 -0.5,-0.3 -0.8,-0.5 -0.5,-0.3 -1,-0.7 -1.6,-1 0,0 0,0 0,0 -0.2,-0.1 -0.4,-0.3 -0.6,-0.4 -0.4,-0.2 -0.8,-0.5 -1.2,-0.7 -0.2,-0.2 -0.5,-0.3 -0.7,-0.5 -0.1,-0.1 -0.3,-0.2 -0.4,-0.3 -0.3,-0.2 -0.6,-0.4 -0.9,-0.6 -0.9,-0.6 -1.8,-1.2 -2.7,-1.8 -0.3,-0.2 -0.6,-0.4 -0.9,-0.6 -0.3,-0.2 -0.6,-0.4 -0.9,-0.6 -0.3,-0.2 -0.6,-0.4 -0.9,-0.6 -3.9,-2.6 -7.8,-5.6 -11.2,-9 -0.4,-0.4 -0.8,-0.8 -1.2,-1.2 -0.5,-0.6 -1,-1.1 -1.5,-1.7 -0.6,-0.7 -1.2,-1.5 -1.7,-2.2 -0.2,-0.3 -0.4,-0.6 -0.6,-0.9 -0.2,-0.3 -0.4,-0.6 -0.6,-0.9 0,0 0,0 0,0 -0.1,-0.2 -0.3,-0.5 -0.4,-0.7 -0.1,-0.2 -0.3,-0.5 -0.4,-0.7 -0.1,-0.1 -0.1,-0.3 -0.2,-0.4 l -0.1,-0.2 c 0,0 0,-0.1 0,-0.1 0,-0.1 -0.1,-0.1 -0.1,-0.2 -0.1,-0.2 -0.2,-0.3 -0.3,-0.5 v 0 c 0,-0.1 -0.1,-0.2 -0.1,-0.3 -0.1,-0.3 -0.2,-0.5 -0.4,-0.8 -0.2,-0.5 -0.4,-1.1 -0.6,-1.6 0,0 0,0 0,-0.1 -0.1,-0.3 -0.2,-0.5 -0.3,-0.8 -0.1,-0.4 -0.2,-0.8 -0.3,-1.2 -0.1,-0.3 -0.1,-0.6 -0.2,-0.9 0,-0.1 0,-0.2 -0.1,-0.3 -0.1,-0.3 -0.1,-0.7 -0.2,-1 0,0 0,-0.1 0,-0.1 -0.9,-6.1 0.4,-13.2 5.4,-21.4 26.8,-31.3 75.1,65.5 89.7,61.6 17,-9.1 -28.1,-47.5 16.3,-47.9 44,6.5 16.7,73.7 29.4,75.3 13.7,5.5 16.8,-26.2 32.9,-17.8 1.5,0.8 3.2,1.9 4.9,3.5 8.6,7.2 4.9,18.8 0.3,30.6 -2.1,5.4 -4.4,10.8 -5.9,15.8 -2.2,7.7 -2.4,14.5 3.4,19 4.5,1.6 6.7,-1.8 8.5,-6.8 1.7,-4.9 3,-11.3 5.7,-16.4 3.2,-6.1 8.3,-10.1 18.4,-6.7 18.6,7.1 4.2,36.3 -1.3,58.5 -2.6,10.5 -3.3,19.5 2.5,23.8 2.1,2.2 4.3,0.4 6.6,-3.1 4.3,-6.4 9.1,-18.5 15.4,-22.2 2.8,-1.6 5.9,-1.6 9.4,1.4 2.9,3.1 4.6,7.3 5.4,12.2 0.1,0.9 0.3,1.9 0.3,2.9 0.5,3.9 0.3,8 -0.2,12.4 z"
       class="color65b646 svgShape"
       clip-rule="evenodd"
       id="path65" />
    <path
       fill="#cb7c69"
       fill-rule="evenodd"
       d="m 787.4,1740 c -0.1,0.4 -0.3,0.8 -0.4,1.2 0,0 0,0 0,0.1 -0.1,0.2 -0.1,0.4 -0.2,0.6 -0.2,0.4 -0.3,0.8 -0.5,1.2 -0.1,0.2 -0.2,0.4 -0.2,0.5 -0.1,0.2 -0.2,0.5 -0.3,0.7 -0.1,0.3 -0.3,0.6 -0.5,0.8 -0.2,0.3 -0.3,0.5 -0.5,0.8 -0.2,0.3 -0.3,0.5 -0.5,0.8 -0.2,0.2 -0.3,0.4 -0.5,0.7 -0.7,1 -1.5,1.9 -2.3,2.8 -0.1,0.2 -0.3,0.3 -0.4,0.4 -0.1,0.1 -0.3,0.3 -0.4,0.4 -0.9,0.9 -1.8,1.7 -2.8,2.4 -1,0.8 -2,1.5 -3.1,2.2 0,0 0,0 0,0 -0.4,0.3 -0.9,0.6 -1.3,0.8 -0.5,0.3 -0.9,0.5 -1.4,0.8 0,0 0,0 0,0 -3.9,2.2 -8.1,3.9 -12.2,5.4 -0.8,0.3 -1.6,0.6 -2.4,0.9 -0.4,0.1 -0.8,0.3 -1.2,0.4 -0.8,0.3 -1.6,0.5 -2.3,0.8 -2.9,1 -5.6,1.8 -7.9,2.7 -0.5,0.2 -0.9,0.3 -1.3,0.5 -0.1,0.1 -0.3,0.1 -0.4,0.2 -0.3,0.1 -0.6,0.2 -0.8,0.4 -0.3,0.1 -0.5,0.2 -0.8,0.4 -0.3,0.1 -0.5,0.2 -0.7,0.4 -0.3,0.2 -0.7,0.4 -1,0.6 -0.6,0.4 -1.1,0.8 -1.5,1.2 -0.1,0.1 -0.3,0.3 -0.4,0.4 -0.7,0.8 -1,1.6 -0.9,2.5 3.3,11.8 43.1,-2.5 37.8,22.4 -15.3,26.7 -83.6,0 -86.5,9.3 -2.6,6.6 35.5,19.9 19.9,31.7 -22.8,17.2 -74.5,-17.6 -83.2,-7.8 -22,22.4 47.6,32.2 24.6,48.4 -16.2,12.6 -54.5,-1 -67.2,7.3 -5.8,4.2 24.2,10 15.5,22.4 -6.7,7.7 -17.4,13.9 -28.4,20.5 h -50.3 c 5.5,-8.1 11.6,-16.3 18.2,-24.6 7.5,-9.4 15.6,-18.8 24.4,-28.3 18.7,-20.2 40.3,-40.3 64.2,-59.6 55.4,-44.7 112.7,-76.1 160.3,-90.6 1.3,5.7 1.1,10.6 -0.2,14.9 z"
       class="color97cb69 svgShape"
       clip-rule="evenodd"
       id="path66" />
    <path
       fill="#cb7c69"
       fill-rule="evenodd"
       d="m 571.3,1738.1 c 1.9,6.5 36.7,-5.1 35.6,10.2 -0.1,0.7 -0.2,1.6 -0.4,2.4 -1.9,7.2 -7.5,12.8 -14.8,17.4 -6.4,4.1 -14.2,7.4 -21.8,10.2 -6.6,2.5 -13.1,4.7 -18.6,6.9 -8.6,3.4 -14.8,6.6 -15,10.7 -1.1,9.9 4.2,13.1 11.8,13.7 10.1,0.8 24.1,-2.9 32.1,-1.6 3.8,0.6 6.2,2.5 6.1,6.5 0,1.2 -0.3,2.5 -0.7,4.1 -3.7,14.8 -26,25.8 -39.1,36.4 -4.5,3.6 -7.9,7.2 -9.2,10.9 -0.8,2.9 3.5,2.1 8.9,1.4 7.4,-1 16.6,-2 17.1,6.7 0,0.3 0,0.7 -0.1,1 -1.1,15.6 -11.5,34.1 -16.1,52.9 h -33.6 c -0.8,-20.8 -0.1,-43.4 2.3,-67.1 1.2,-11.7 2.7,-23.6 4.7,-35.7 2.2,-13.4 4.8,-27 8,-40.7 15.9,-69.3 41.5,-129.4 70,-170.3 1.1,0.9 2,1.8 2.9,2.7 0.2,0.2 0.3,0.3 0.5,0.5 0.6,0.7 1.2,1.4 1.8,2.1 0.2,0.2 0.4,0.5 0.5,0.7 0.2,0.2 0.4,0.5 0.5,0.7 0,0 0,0 0,0 0.2,0.2 0.3,0.4 0.4,0.6 0,0.1 0.1,0.1 0.1,0.2 0.2,0.2 0.3,0.5 0.4,0.7 0.1,0.2 0.2,0.4 0.4,0.6 0.2,0.3 0.3,0.6 0.5,0.9 0.1,0.2 0.2,0.5 0.4,0.7 0.3,0.6 0.5,1.1 0.7,1.7 0.1,0.2 0.2,0.4 0.3,0.7 0.1,0.2 0.1,0.4 0.2,0.6 0.1,0.3 0.2,0.6 0.3,0.9 0.1,0.3 0.1,0.5 0.2,0.8 0,0 0,0 0,0.1 0.1,0.2 0.1,0.5 0.2,0.7 0.1,0.3 0.1,0.5 0.2,0.8 0,0 0,0 0,0 0,0.3 0.1,0.5 0.1,0.7 0,0 0,0 0,0 0,0.3 0.1,0.5 0.1,0.7 0,0.2 0.1,0.5 0.1,0.7 0,0.1 0,0.1 0,0.2 0,0.2 0,0.5 0.1,0.7 0,0.2 0,0.4 0,0.5 0.1,2.1 -0.1,4.2 -0.5,6.3 -0.5,2.6 -1.3,5.3 -2.3,7.8 -0.2,0.5 -0.4,0.9 -0.6,1.4 0,0 0,0 0,0 -0.2,0.5 -0.4,0.9 -0.6,1.4 0,0 0,0 0,0 -0.4,0.9 -0.9,1.8 -1.3,2.7 0,0 0,0 0,0 -0.4,0.7 -0.7,1.3 -1.1,2 -0.2,0.4 -0.5,0.9 -0.7,1.3 0,0 0,0 0,0 -3.2,5.6 -6.9,10.8 -9.5,15.1 0,0 0,0 0,0 -0.7,1.2 -1.4,2.2 -1.9,3.2 0,0 0,0 0,0 -0.2,0.4 -0.4,0.9 -0.6,1.3 -0.1,0.3 -0.3,0.5 -0.4,0.8 -0.1,0.3 -0.2,0.5 -0.3,0.8 0,0 0,0 0,0 -0.1,0.2 -0.1,0.3 -0.2,0.5 -0.4,1.3 -0.5,2.4 -0.1,3.2 0.1,0.2 0.2,0.4 0.3,0.5 0.1,0.2 0.2,0.3 0.4,0.5 9.8,7.2 32.3,-28.6 43.6,-5.8 4.4,30.4 -65.8,51.7 -62.3,60.8 z"
       class="color97cb69 svgShape"
       clip-rule="evenodd"
       id="path67" />
    <path
       fill="#cb7c69"
       fill-rule="evenodd"
       d="m 508,1928 h -42.5 c -9.8,-10.2 -20,-19.5 -25.1,-29.5 -3,-7.8 4.9,-10.8 11.9,-12.8 5.6,-1.7 10.6,-2.7 8.6,-5.2 -2.7,-2.9 -7.4,-4.8 -13.2,-6.3 -16.3,-4.3 -40.9,-5.3 -50.2,-17.2 -18.3,-21.3 51.6,-13.8 35.7,-40.9 -6,-11.7 -64.6,9.5 -82.5,-12.8 -12.3,-15.2 27.9,-18.8 27,-25.8 -0.5,-9.7 -73.4,-0.6 -81.7,-30.1 1,-25.4 36.1,-1.9 42.2,-12.5 0.6,-1.5 -0.2,-3 -1.7,-4.6 -0.1,-0.1 -0.1,-0.2 -0.2,-0.2 -1.3,-1.3 -3,-2.6 -5.1,-4 -0.3,-0.2 -0.5,-0.3 -0.8,-0.5 -0.5,-0.3 -1,-0.7 -1.6,-1 0,0 0,0 0,0 -0.2,-0.1 -0.4,-0.3 -0.6,-0.4 -0.4,-0.2 -0.8,-0.5 -1.2,-0.7 -0.2,-0.2 -0.5,-0.3 -0.7,-0.5 -0.1,-0.1 -0.3,-0.2 -0.4,-0.3 -0.3,-0.2 -0.6,-0.4 -0.9,-0.6 -0.9,-0.6 -1.8,-1.2 -2.7,-1.8 -0.3,-0.2 -0.6,-0.4 -0.9,-0.6 -0.3,-0.2 -0.6,-0.4 -0.9,-0.6 -0.3,-0.2 -0.6,-0.4 -0.9,-0.6 -3.9,-2.6 -7.8,-5.6 -11.2,-9 -0.4,-0.4 -0.8,-0.8 -1.2,-1.2 -0.5,-0.6 -1,-1.1 -1.5,-1.7 -0.6,-0.7 -1.2,-1.5 -1.7,-2.2 -0.2,-0.3 -0.4,-0.6 -0.6,-0.9 -0.2,-0.3 -0.4,-0.6 -0.6,-0.9 0,0 0,0 0,0 -0.1,-0.2 -0.3,-0.5 -0.4,-0.7 -0.1,-0.2 -0.3,-0.5 -0.4,-0.7 -0.1,-0.1 -0.1,-0.3 -0.2,-0.4 l -0.1,-0.2 c 0,-0.1 -0.1,-0.2 -0.1,-0.3 -0.1,-0.2 -0.2,-0.3 -0.3,-0.5 0,-0.1 -0.1,-0.2 -0.1,-0.3 -0.1,-0.3 -0.2,-0.5 -0.4,-0.8 -0.2,-0.5 -0.4,-1.1 -0.6,-1.6 0,0 0,0 0,-0.1 -0.1,-0.3 -0.2,-0.5 -0.3,-0.8 -1.8,-5.9 -1.5,-12.8 2.4,-20.9 42.7,25.7 90.6,70.1 133.3,127 17.4,23.1 32.5,46.4 45.3,69.2 8,14.2 15,28.3 21,41.9 2.1,5 4.2,9.8 6.1,14.6 z"
       class="color97cb69 svgShape"
       clip-rule="evenodd"
       id="path68" />
  </g>
  <path
     fill="#ba2d0e"
     fill-rule="evenodd"
     d="m 1037.8,1855.2 c 0.7,-4.1 1.7,-8 2.9,-11.9 1.4,8.6 2.2,17.4 2.5,26.2 -1.5,-4.9 -3.3,-9.6 -5.4,-14.3 z m -883.8,0 c 0.8,-4.1 1.8,-8 2.9,-11.9 1.4,8.6 2.2,17.4 2.7,26.2 -1.5,-4.9 -3.3,-9.6 -5.6,-14.3 z m 455,0 c 0.8,-4.1 1.8,-8 2.9,-11.9 1.4,8.6 2.2,17.4 2.7,26.2 -1.5,-4.9 -3.3,-9.6 -5.6,-14.3 z m 218.4,0 c -0.7,-4.1 -1.7,-8 -2.9,-11.9 -1.4,8.6 -2.2,17.4 -2.5,26.2 1.3,-4.9 3.2,-9.6 5.4,-14.3 z m -13.2,-36.1 c -3.1,-5.5 -6.7,-11.1 -11.1,-16.6 -2.9,9.7 -5.1,19.4 -6.6,29.3 2.5,4.9 4.8,9.9 6.6,15.1 3.1,-9.4 6.8,-18.7 11.1,-27.8 z m -10.7,-17.8 c 4.8,4.1 9.1,8.5 13.1,13 4.2,-8.2 8.8,-16 14.3,-23.5 -2.2,-3 -4.5,-6 -7,-8.8 2.9,2.2 5.8,4.5 8.3,6.9 8,-10.8 17.4,-21.2 28.5,-30.4 2.5,-4.9 5.2,-9.7 8.1,-14.6 -1.4,3.8 -2.7,7.4 -3.8,11 0.4,-0.3 0.7,-0.5 1,-0.8 -0.4,0.5 -0.7,0.9 -1.1,1.4 -6.9,22 -9.7,42 -9.4,60.8 4.2,6.4 7.7,13 10.8,19.6 2.7,-14.7 6.9,-29.6 13.1,-44.2 -2.4,-3.1 -4.9,-6.4 -7.7,-9.7 3.1,2.4 6,4.9 8.8,7.4 3.5,-8 7.6,-15.8 12.5,-23.5 -2.9,-3.9 -5.9,-7.8 -9.3,-11.8 3.8,3 7.4,6.1 10.9,9.3 3.9,-6 8.1,-11.8 13.1,-17.6 -3.8,7.1 -7.2,13.8 -9.8,20.5 5.1,5 9.8,10.2 14.2,15.4 4.6,-7.7 10,-15.2 15.7,-22.6 -5.9,-10.2 -12.9,-20.5 -21.3,-31 9.8,8 18.4,16.5 26.1,25.4 7.7,-8.9 16.4,-17.4 26.2,-25.4 -8.4,10.5 -15.4,20.9 -21.5,31 5.9,7.4 11.2,14.9 15.9,22.6 4.4,-5.2 9.1,-10.3 14.2,-15.4 -2.8,-6.7 -6,-13.5 -9.8,-20.5 4.8,5.8 9.1,11.6 13.1,17.6 3.5,-3.1 7.2,-6.3 10.9,-9.3 -3.4,3.9 -6.5,7.8 -9.3,11.8 4.9,7.7 9,15.5 12.5,23.5 2.8,-2.5 5.8,-5 8.8,-7.4 -2.8,3.3 -5.3,6.6 -7.7,9.7 6.2,14.6 10.4,29.5 13.1,44.2 3.1,-6.6 6.6,-13.2 10.8,-19.6 0.3,-18.8 -2.5,-38.9 -9.4,-60.8 -0.4,-0.5 -0.8,-0.9 -1.1,-1.4 0.3,0.3 0.6,0.5 1,0.8 -1.3,-3.6 -2.5,-7.2 -3.8,-11 2.9,4.9 5.6,9.7 8.1,14.6 11.1,9.3 20.5,19.6 28.4,30.4 2.7,-2.4 5.5,-4.7 8.4,-6.9 -2.5,2.8 -4.9,5.8 -7,8.8 5.5,7.5 10.1,15.4 14.2,23.5 3.9,-4.5 8.3,-8.9 13.2,-13 -7.6,-24.3 -19.9,-48.6 -39.7,-73.2 28.5,23.2 47.7,51.3 60.8,80.8 3.1,-4.1 6.3,-8 9.8,-11.9 -3.6,-16.3 -9.8,-33.2 -19.5,-51.1 11.6,14 20.5,28.5 27.2,43.6 2.8,-2.5 5.6,-5 8.7,-7.4 -2.7,3.3 -5.3,6.6 -7.7,9.7 6.3,14.6 10.4,29.5 13.1,44.2 3.1,-6.6 6.7,-13.2 10.8,-19.6 0,-0.3 0,-0.8 0,-1.1 -3.5,-5.8 -7.7,-11.6 -12.5,-17.6 4.5,3.6 8.7,7.4 12.5,11.3 -0.6,-20.1 -4.5,-41.6 -13.3,-65.1 11.8,19.1 19.5,38.7 24,58.2 2.9,-3.4 6,-6.7 9.3,-10 -2.4,-3.3 -5.1,-6.7 -7.9,-10 3.5,2.7 6.7,5.3 9.8,8.3 2.9,-3 6.3,-5.6 9.7,-8.3 -2.8,3.3 -5.5,6.7 -7.9,10 3.4,3.3 6.5,6.6 9.3,10 4.6,-19.4 12.2,-39 24,-58.2 -8.7,23.5 -12.8,45 -13.3,65.1 3.9,-3.9 8,-7.7 12.6,-11.3 -4.9,6 -9.1,11.8 -12.6,17.6 0,0.3 0,0.8 0,1.1 4.2,6.4 7.7,13 10.8,19.6 2.7,-14.7 6.7,-29.6 13.1,-44.2 -2.4,-3.1 -4.9,-6.4 -7.7,-9.7 3.1,2.4 6,4.9 8.7,7.4 6.7,-15.1 15.6,-29.6 27.4,-43.6 -9.8,17.9 -16,34.8 -19.6,51.1 3.5,3.9 6.9,7.8 9.8,11.9 13.1,-29.5 32.3,-57.5 60.9,-80.8 -19.8,24.6 -32.3,48.9 -39.7,73.2 4.8,4.1 9.1,8.5 13.1,13 4.1,-8.2 8.8,-16 14.2,-23.5 -2.1,-3 -4.5,-6 -6.9,-8.8 2.8,2.2 5.6,4.5 8.3,6.9 7.9,-10.8 17.3,-21.2 28.5,-30.4 2.4,-4.9 5.2,-9.7 8.1,-14.6 -1.4,3.8 -2.7,7.4 -3.8,11 0.3,-0.3 0.6,-0.5 1,-0.8 -0.4,0.5 -0.8,0.9 -1.3,1.4 -6.9,22 -9.5,42 -9.3,60.8 4.1,6.4 7.7,13 10.8,19.6 2.5,-14.7 6.7,-29.6 12.9,-44.2 -2.4,-3.1 -4.9,-6.4 -7.6,-9.7 2.9,2.4 5.9,4.9 8.7,7.4 6.6,-15.1 15.6,-29.6 27.2,-43.6 -9.7,17.9 -16,34.8 -19.5,51.1 3.5,3.9 6.7,7.8 9.8,11.9 6.2,-14 13.6,-27.6 23,-40.6 -3.4,-4.7 -7,-9.4 -10.9,-14.1 4.6,3.6 9,7.4 13.1,11.3 6,-8.2 12.8,-16 20.2,-23.4 -3.2,-4.7 -6.7,-9.3 -10.5,-14 4.6,3.8 8.8,7.5 13.1,11.4 4.1,-3.9 8.4,-7.7 12.9,-11.4 -3.8,4.7 -7.2,9.3 -10.4,14 7.4,7.4 14,15.2 20.1,23.4 4.1,-3.9 8.4,-7.7 13.1,-11.3 -3.9,4.7 -7.6,9.4 -10.9,14.1 9.4,13 17,26.7 23.2,40.6 2.9,-4.1 6.2,-8 9.8,-11.9 -3.6,-16.3 -10,-33.2 -19.6,-51.1 11.8,14 20.6,28.5 27.2,43.6 2.8,-2.5 5.8,-5 8.8,-7.4 -2.8,3.3 -5.3,6.6 -7.7,9.7 6.2,14.6 10.4,29.5 13.1,44.2 3.1,-6.6 6.6,-13.2 10.8,-19.6 0.3,-18.8 -2.5,-38.9 -9.4,-60.8 -0.4,-0.5 -0.8,-0.9 -1.1,-1.4 0.3,0.3 0.6,0.5 1,0.8 -1.3,-3.6 -2.5,-7.2 -3.8,-11 2.9,4.9 5.6,9.7 8.1,14.6 11.1,9.3 20.5,19.6 28.4,30.4 2.7,-2.4 5.5,-4.7 8.4,-6.9 -2.5,2.8 -4.8,5.8 -7,8.8 5.5,7.5 10.1,15.4 14.3,23.5 3.8,-4.5 8.1,-8.9 13.1,-13 -7.6,-24.3 -19.9,-48.6 -39.7,-73.2 28.5,23.2 47.7,51.3 60.8,80.8 3.1,-4.1 6.3,-8 9.8,-11.9 -3.6,-16.3 -9.8,-33.2 -19.5,-51.1 11.6,14 20.5,28.5 27.2,43.6 2.8,-2.5 5.6,-5 8.7,-7.4 -2.7,3.3 -5.3,6.6 -7.7,9.7 6.3,14.6 10.4,29.5 13.1,44.2 3.1,-6.6 6.7,-13.2 10.8,-19.6 0,-0.3 0,-0.8 0,-1.1 -3.5,-5.8 -7.7,-11.6 -12.5,-17.6 4.5,3.6 8.7,7.4 12.5,11.3 -0.6,-20.1 -4.5,-41.6 -13.3,-65.1 11.8,19.1 19.5,38.7 24,58.2 2.9,-3.4 6,-6.7 9.3,-10 -2.4,-3.3 -5.1,-6.7 -7.9,-10 3.5,2.7 6.7,5.3 9.8,8.3 3.1,-3 6.3,-5.6 9.7,-8.3 -2.8,3.3 -5.5,6.7 -7.9,10 3.4,3.3 6.5,6.6 9.3,10 4.6,-19.4 12.2,-39 24,-58.2 -8.7,23.5 -12.8,45 -13.3,65.1 3.9,-3.9 8,-7.7 12.6,-11.3 -4.9,6 -9.1,11.8 -12.6,17.6 0,0.3 0,0.8 0,1.1 4.2,6.4 7.7,13 10.8,19.6 2.7,-14.7 6.9,-29.6 13.1,-44.2 -2.4,-3.1 -4.9,-6.4 -7.7,-9.7 3.1,2.4 6,4.9 8.7,7.4 6.7,-15.1 15.6,-29.6 27.4,-43.6 -9.8,17.9 -16,34.8 -19.6,51.1 3.5,3.9 6.9,7.8 9.8,11.9 13.1,-29.5 32.3,-57.5 60.9,-80.8 -19.8,24.6 -32.3,48.9 -39.7,73.2 4.8,4.1 9.1,8.5 13.1,13 4.1,-8.2 8.8,-16 14.2,-23.5 -2.1,-3 -4.5,-6 -6.9,-8.8 2.8,2.2 5.6,4.5 8.3,6.9 7.9,-10.8 17.3,-21.2 28.5,-30.4 2.4,-4.9 5.2,-9.7 8.1,-14.6 -1.4,3.8 -2.7,7.4 -3.8,11 0.3,-0.3 0.6,-0.5 1,-0.8 -0.4,0.5 -0.8,0.9 -1.3,1.4 -6.9,22 -9.5,42 -9.3,60.8 4.1,6.4 7.7,13 10.8,19.6 2.5,-14.7 6.7,-29.6 12.9,-44.2 -2.4,-3.1 -4.9,-6.4 -7.6,-9.7 2.9,2.4 5.9,4.9 8.7,7.4 6.6,-15.1 15.6,-29.6 27.2,-43.6 -9.7,17.9 -16,34.8 -19.5,51.1 3.5,3.9 6.7,7.8 9.8,11.9 12.9,-29.5 32.3,-57.5 60.8,-80.8 -28.1,35 -41.4,69.2 -46.7,103.8 2.5,4.9 4.6,9.9 6.6,15.1 10.9,-33.9 29.9,-67.1 62.9,-92.8 -32.3,38.4 -42.5,76.4 -44.2,115.4 5.8,-17.9 15.6,-35.6 33.1,-49.2 -13.9,16.5 -19.9,32.9 -22.2,49.7 H 33.3 c -2.2,-16.8 -8.3,-33.2 -22.2,-49.7 17.4,13.6 27.4,31.4 33,49.2 -1.7,-39 -11.9,-77 -44.1,-115.4 33,25.7 51.8,59 62.9,92.8 1.8,-5.2 4.1,-10.2 6.6,-15.1 -5.3,-34.7 -18.7,-68.8 -46.7,-103.8 28.5,23.2 47.9,51.3 60.8,80.8 3.1,-4.1 6.3,-8 9.8,-11.9 -3.6,-16.3 -9.8,-33.2 -19.5,-51.1 11.6,14 20.5,28.5 27.2,43.6 2.8,-2.5 5.6,-5 8.7,-7.4 -2.7,3.3 -5.3,6.6 -7.7,9.7 6.3,14.6 10.4,29.5 13.1,44.2 3.1,-6.6 6.7,-13.2 10.8,-19.6 0.3,-18.8 -2.4,-38.9 -9.3,-60.8 -0.4,-0.5 -0.8,-0.9 -1.3,-1.4 0.4,0.3 0.7,0.5 1,0.8 -1.1,-3.6 -2.4,-7.2 -3.8,-11 2.9,4.9 5.8,9.7 8.1,14.6 11.1,9.3 20.5,19.6 28.5,30.4 2.7,-2.4 5.5,-4.7 8.3,-6.9 -2.4,2.8 -4.8,5.8 -6.9,8.8 5.3,7.5 10.1,15.4 14.2,23.5 3.9,-4.5 8.3,-8.9 13.1,-13 -7.4,-24.3 -19.9,-48.6 -39.7,-73.2 28.6,23.2 47.9,51.3 60.9,80.8 2.9,-4.1 6.2,-8 9.8,-11.9 -3.6,-16.3 -9.8,-33.2 -19.6,-51.1 11.8,14 20.6,28.5 27.2,43.6 2.8,-2.5 5.8,-5 8.8,-7.4 -2.8,3.3 -5.3,6.6 -7.7,9.7 6.2,14.6 10.4,29.5 13.1,44.2 3.1,-6.6 6.6,-13.2 10.8,-19.6 0,-0.3 0,-0.8 0,-1.1 -3.5,-5.8 -7.7,-11.6 -12.6,-17.6 4.6,3.6 8.7,7.4 12.5,11.3 -0.6,-20.1 -4.5,-41.6 -13.2,-65.1 11.8,19.1 19.4,38.7 24,58.2 2.8,-3.4 5.9,-6.7 9.3,-10 -2.4,-3.3 -5.1,-6.7 -7.9,-10 3.4,2.7 6.6,5.3 9.7,8.3 3.1,-3 6.3,-5.6 9.8,-8.3 -2.8,3.3 -5.5,6.7 -7.9,10 3.2,3.3 6.3,6.6 9.3,10 4.5,-19.4 12.2,-39 24,-58.2 -8.8,23.5 -12.8,45 -13.3,65.1 3.8,-3.9 8,-7.7 12.5,-11.3 -4.9,6 -9,11.8 -12.5,17.6 0,0.3 0,0.8 0,1.1 4.1,6.4 7.7,13 10.8,19.6 2.5,-14.7 6.7,-29.6 12.9,-44.2 -2.2,-3.1 -4.9,-6.4 -7.6,-9.7 3.1,2.4 5.9,4.9 8.7,7.4 6.7,-15.1 15.6,-29.6 27.2,-43.6 -9.7,17.9 -16,34.8 -19.5,51.1 3.5,3.9 6.7,7.8 9.8,11.9 12.9,-29.5 32.3,-57.5 60.8,-80.8 -19.8,24.6 -32.3,48.9 -39.7,73.2 4.8,4.1 9.1,8.5 13.1,13 4.2,-8.2 8.8,-16 14.3,-23.5 -2.2,-3 -4.5,-6 -7,-8.8 2.9,2.2 5.8,4.5 8.3,6.9 8,-10.8 17.4,-21.2 28.5,-30.4 2.5,-4.9 5.2,-9.7 8.1,-14.6 -1.4,3.8 -2.7,7.4 -3.8,11 0.4,-0.3 0.7,-0.5 1,-0.8 -0.4,0.5 -0.7,0.9 -1.1,1.4 -6.9,22 -9.7,42 -9.4,60.8 4.2,6.4 7.7,13 10.8,19.6 2.7,-14.7 6.9,-29.6 13.1,-44.2 -2.4,-3.1 -4.9,-6.4 -7.7,-9.7 3.1,2.4 6,4.9 8.8,7.4 6.6,-15.1 15.4,-29.6 27.2,-43.6 -9.8,17.9 -16,34.8 -19.6,51.1 3.5,3.9 6.9,7.8 9.8,11.9 6.2,-14 13.8,-27.6 23,-40.6 -3.2,-4.7 -6.9,-9.4 -10.8,-14.1 4.6,3.6 9,7.4 13.1,11.3 5.9,-8.2 12.6,-16 20.1,-23.4 -3.2,-4.7 -6.7,-9.3 -10.4,-14 4.5,3.8 8.8,7.5 12.9,11.4 4.1,-3.9 8.4,-7.7 13.1,-11.4 -3.8,4.7 -7.3,9.3 -10.5,14 7.4,7.4 14.2,15.2 20.2,23.4 4.1,-3.9 8.4,-7.7 13.1,-11.3 -3.9,4.7 -7.6,9.4 -10.9,14.1 9.3,13 16.8,26.7 23,40.6 3.1,-4.1 6.3,-8 9.8,-11.9 -3.5,-16.3 -9.8,-33.2 -19.5,-51.1 11.6,14 20.5,28.5 27.2,43.6 2.8,-2.5 5.6,-5 8.7,-7.4 -2.7,3.3 -5.3,6.6 -7.7,9.7 6.3,14.6 10.4,29.5 13.1,44.2 3.1,-6.6 6.7,-13.2 10.8,-19.6 0.3,-18.8 -2.4,-38.9 -9.3,-60.8 -0.4,-0.5 -0.8,-0.9 -1.3,-1.4 0.4,0.3 0.7,0.5 1,0.8 -1.1,-3.6 -2.4,-7.2 -3.8,-11 2.9,4.9 5.8,9.7 8.1,14.6 11.1,9.3 20.5,19.6 28.5,30.4 2.7,-2.4 5.5,-4.7 8.3,-6.9 -2.4,2.8 -4.8,5.8 -6.9,8.8 5.3,7.5 10.1,15.4 14.2,23.5 3.9,-4.5 8.3,-8.9 13.1,-13 -7.4,-24.3 -19.9,-48.6 -39.7,-73.2 28.6,23.2 47.9,51.3 60.9,80.8 2.9,-4.1 6.3,-8 9.8,-11.9 -3.6,-16.3 -9.8,-33.2 -19.6,-51.1 11.8,14 20.6,28.5 27.2,43.6 2.8,-2.5 5.8,-5 8.8,-7.4 -2.8,3.3 -5.3,6.6 -7.7,9.7 6.2,14.6 10.4,29.5 13.1,44.2 3.1,-6.6 6.6,-13.2 10.8,-19.6 0,-0.3 0,-0.8 0,-1.1 -3.5,-5.8 -7.7,-11.6 -12.6,-17.6 4.6,3.6 8.7,7.4 12.5,11.3 -0.6,-20.1 -4.5,-41.6 -13.2,-65.1 11.8,19.1 19.4,38.7 24,58.2 2.8,-3.4 5.9,-6.7 9.3,-10 -2.4,-3.3 -5.1,-6.7 -7.9,-10 3.4,2.7 6.6,5.3 9.7,8.3 3.1,-3 6.3,-5.6 9.8,-8.3 -2.8,3.3 -5.5,6.7 -7.9,10 3.2,3.3 6.3,6.6 9.3,10 4.5,-19.4 12.2,-39 24,-58.2 -8.8,23.5 -12.8,45 -13.3,65.1 3.8,-3.9 8,-7.7 12.5,-11.3 -4.9,6 -9,11.8 -12.5,17.6 0,0.3 0,0.8 0,1.1 4.1,6.4 7.7,13 10.8,19.6 2.7,-14.7 6.7,-29.6 13.1,-44.2 -2.4,-3.1 -5.1,-6.4 -7.7,-9.7 3.1,2.4 5.9,4.9 8.7,7.4 6.7,-15.1 15.6,-29.6 27.2,-43.6 -9.7,17.9 -16,34.8 -19.5,51.1 3.5,3.9 6.7,7.8 9.8,11.9 12.9,-29.5 32.3,-57.5 60.8,-80.8 -20.2,24.5 -32.7,48.8 -40.2,73.2 z m 92.7,-30.9 c -3.5,9.1 -6.2,17.9 -8.1,26.5 3.5,3.9 6.9,7.8 9.8,11.9 2.9,-6.6 6.2,-13 9.7,-19.4 -3.4,-6.3 -7.1,-12.6 -11.4,-19 z m 36.3,-2.5 c -4.5,8.8 -8.1,17.6 -11.2,26.3 4.2,6.3 7.9,12.5 11.2,19 3.4,-6.4 7.2,-12.7 11.4,-19 -3.1,-8.8 -6.7,-17.6 -11.4,-26.3 z m -16,41.8 c -1.8,7.4 -3.4,14.7 -4.5,22.1 2.5,4.9 4.6,9.9 6.6,15.1 1.4,-4.5 3.1,-9.1 4.8,-13.5 -1.7,-7.8 -3.9,-15.8 -6.9,-23.7 z m 52.5,-39.3 c -4.4,6.4 -8.1,12.7 -11.4,19 3.5,6.4 6.7,12.9 9.7,19.4 2.9,-4.1 6.2,-8 9.8,-11.9 -1.9,-8.7 -4.6,-17.4 -8.1,-26.5 z m -20.5,39.3 c -2.8,7.8 -5.1,15.8 -6.7,23.7 1.7,4.4 3.4,8.9 4.8,13.5 2,-5.2 4.1,-10.2 6.6,-15.1 -1.2,-7.3 -2.7,-14.7 -4.7,-22.1 z m -462.3,49.1 c -0.7,-2.7 -1.4,-5.3 -2.4,-8 -0.7,6.1 -1.3,12.4 -1.5,18.7 1.1,-3.6 2.4,-7.1 3.9,-10.7 z m -15,-32.1 c -1.5,-2.2 -3.2,-4.4 -5.1,-6.4 2,1.6 3.9,3.1 5.8,4.9 3.6,-8.2 7.7,-16.2 12.5,-24 -3.2,-7.7 -7.2,-15.2 -11.8,-22.7 -8,17.7 -12.8,35.6 -15.6,53.5 2.5,4.9 4.6,9.9 6.6,15.1 2.1,-7 4.7,-13.7 7.6,-20.4 z m 14.2,13.9 c 2,2.8 3.8,5.8 5.3,8.8 1.7,-3 3.5,-6 5.5,-8.8 -1.4,-7.5 -3.1,-15.1 -5.5,-22.6 -2.2,7.6 -4.1,15.1 -5.3,22.6 z m 9.9,18.2 c 1.4,3.6 2.7,7.1 3.8,10.7 -0.3,-6.3 -0.7,-12.5 -1.4,-18.7 -1,2.7 -1.8,5.3 -2.4,8 z m -20,-86.2 c 5.8,6.1 10.8,12.4 15.4,19 4.6,-6.6 9.8,-12.9 15.4,-19 -4.2,-8.9 -9.4,-17.9 -15.4,-27 -6,9.1 -11.1,18 -15.4,27 z m 21.7,28.5 c 4.8,7.8 9,15.8 12.6,24 1.8,-1.7 3.6,-3.3 5.8,-4.9 -1.8,2 -3.5,4.2 -5.1,6.4 2.8,6.7 5.3,13.5 7.6,20.2 1.8,-5.2 4.1,-10.2 6.6,-15.1 -2.8,-17.9 -7.7,-35.8 -15.6,-53.5 -4.7,7.7 -8.6,15.2 -11.9,22.9 z m 214.5,26.8 c 2.5,3.8 4.8,7.7 6.7,11.6 2.1,-3.9 4.4,-7.8 6.9,-11.6 0.6,-5.8 1.4,-11.8 2.5,-17.6 -2.7,-5.3 -5.8,-10.5 -9.4,-15.7 -3.5,5.2 -6.6,10.3 -9.4,15.7 1.1,5.8 2,11.8 2.7,17.6 z m 115.9,0.8 c 2.8,4.2 5.2,8.6 7.4,13.2 1.5,-2.4 3.2,-4.5 4.9,-6.7 0.7,-8.2 1.7,-16.5 3.4,-24.8 -1.8,-3.4 -3.8,-7.1 -6,-10.5 -4.2,9.5 -7.3,19.1 -9.7,28.8 z m 10.5,20.1 c 0.4,0.9 0.8,1.9 1.3,2.7 0,-1.9 0,-3.9 0.1,-6 -0.5,1.1 -0.9,2.2 -1.4,3.3 z m 1.2,-53.2 c 2.1,2 3.9,4.2 5.8,6.4 2.9,-12.4 7.2,-24.9 12.9,-37.3 -7.8,10.4 -13.8,20.6 -18.7,30.9 z m -67.7,7.5 c -2.8,14.9 -3.4,29.5 -2.4,43.7 2.7,-9.9 5.9,-19.8 9.8,-29.5 -2.2,-4.6 -4.6,-9.5 -7.4,-14.2 z m 115.4,0 c -2.7,14.9 -3.2,29.5 -2.4,43.7 2.7,-9.9 5.9,-19.8 9.8,-29.5 -2.1,-4.6 -4.6,-9.5 -7.4,-14.2 z m -264.4,16 c 3.1,-5.5 6.7,-11.1 10.9,-16.6 2.9,9.7 5.1,19.4 6.6,29.3 -2.5,4.9 -4.6,9.9 -6.6,15.1 -2.9,-9.4 -6.6,-18.7 -10.9,-27.8 z m -13.4,9.6 c -2.7,4.2 -5.2,8.6 -7.3,13.2 -1.5,-2.4 -3.2,-4.5 -5.1,-6.7 -0.6,-8.2 -1.7,-16.5 -3.2,-24.8 1.8,-3.4 3.8,-7.1 5.9,-10.5 4.3,9.5 7.5,19.1 9.7,28.8 z m -10.5,20.1 c -0.4,0.9 -0.8,1.9 -1.1,2.7 0,-1.9 -0.1,-3.9 -0.1,-6 0.4,1.1 0.8,2.2 1.2,3.3 z m -1.1,-53.2 c -2,2 -3.9,4.2 -5.8,6.4 -2.9,-12.4 -7,-24.9 -12.8,-37.3 7.6,10.4 13.8,20.6 18.6,30.9 z m 67.8,7.5 c 2.7,14.9 3.2,29.5 2.4,43.7 -2.7,-9.9 -5.9,-19.8 -9.8,-29.5 2,-4.6 4.6,-9.5 7.4,-14.2 z m -115.5,0 c 2.8,14.9 3.4,29.5 2.4,43.7 -2.7,-9.9 -5.9,-19.8 -9.8,-29.5 2.2,-4.6 4.6,-9.5 7.4,-14.2 z m -177.3,52.1 c -0.7,-4.1 -1.7,-8 -2.9,-11.9 -1.4,8.6 -2.2,17.4 -2.5,26.2 1.3,-4.9 3.2,-9.6 5.4,-14.3 z m -13.2,-36.1 c -3.1,-5.5 -6.7,-11.1 -11.1,-16.6 -2.9,9.7 -5.1,19.4 -6.6,29.3 2.5,4.9 4.8,9.9 6.6,15.1 3.1,-9.4 6.8,-18.7 11.1,-27.8 z m -102.7,8.8 c 2.5,3.8 4.8,7.7 6.7,11.6 2.1,-3.9 4.4,-7.8 6.9,-11.6 0.6,-5.8 1.4,-11.8 2.5,-17.6 -2.7,-5.3 -5.8,-10.5 -9.4,-15.7 -3.5,5.2 -6.6,10.3 -9.4,15.7 1.1,5.8 2,11.8 2.7,17.6 z m 115.9,0.8 c 2.8,4.2 5.2,8.6 7.4,13.2 1.5,-2.4 3.2,-4.5 4.9,-6.7 0.7,-8.2 1.7,-16.5 3.4,-24.8 -1.8,-3.4 -3.8,-7.1 -6,-10.5 -4.2,9.5 -7.3,19.1 -9.7,28.8 z m 10.5,20.1 c 0.4,0.9 0.8,1.9 1.3,2.7 0,-1.9 0,-3.9 0.1,-6 -0.5,1.1 -1,2.2 -1.4,3.3 z m 1.1,-53.2 c 2.1,2 3.9,4.2 5.8,6.4 2.9,-12.4 7.2,-24.9 12.9,-37.3 -7.7,10.4 -13.7,20.6 -18.7,30.9 z m -67.6,7.5 c -2.8,14.9 -3.4,29.5 -2.4,43.7 2.7,-9.9 5.9,-19.8 9.8,-29.5 -2.2,-4.6 -4.6,-9.5 -7.4,-14.2 z m 115.4,0 c -2.7,14.9 -3.2,29.5 -2.4,43.7 2.7,-9.9 5.9,-19.8 9.8,-29.5 -2.1,-4.6 -4.6,-9.5 -7.4,-14.2 z m -264.5,16 c 3.1,-5.5 6.7,-11.1 10.9,-16.6 2.9,9.7 5.1,19.4 6.6,29.3 -2.5,4.9 -4.6,9.9 -6.6,15.1 -2.9,-9.4 -6.5,-18.7 -10.9,-27.8 z m -13.3,9.6 c -2.7,4.2 -5.2,8.6 -7.4,13.2 -1.4,-2.4 -3.1,-4.5 -4.9,-6.7 -0.6,-8.2 -1.7,-16.5 -3.2,-24.8 1.8,-3.4 3.8,-7.1 5.9,-10.5 4.1,9.5 7.4,19.1 9.6,28.8 z m -10.5,20.1 c -0.4,0.9 -0.8,1.9 -1.1,2.7 0,-1.9 -0.1,-3.9 -0.1,-6 0.3,1.1 0.8,2.2 1.2,3.3 z m -1.1,-53.2 c -2,2 -3.9,4.2 -5.8,6.4 -2.9,-12.4 -7,-24.9 -12.8,-37.3 7.6,10.4 13.8,20.6 18.6,30.9 z m 67.8,7.5 c 2.7,14.9 3.2,29.5 2.4,43.7 -2.7,-9.9 -5.9,-19.8 -9.8,-29.5 2,-4.6 4.5,-9.5 7.4,-14.2 z m -115.6,0 c 2.8,14.9 3.4,29.5 2.4,43.7 -2.7,-9.9 -5.9,-19.8 -9.8,-29.5 2.1,-4.6 4.6,-9.5 7.4,-14.2 z m 1398.2,52.1 c 0.7,-4.1 1.7,-8 2.9,-11.9 1.4,8.6 2.2,17.4 2.5,26.2 -1.5,-4.9 -3.3,-9.6 -5.4,-14.3 z m 218.2,0 c -0.7,-4.1 -1.7,-8 -2.9,-11.9 -1.4,8.6 -2.1,17.4 -2.5,26.2 1.5,-4.9 3.3,-9.6 5.4,-14.3 z m -13.1,-36.1 c -3.1,-5.5 -6.7,-11.1 -10.9,-16.6 -2.9,9.7 -5.1,19.4 -6.6,29.3 2.4,4.9 4.6,9.9 6.6,15.1 2.9,-9.4 6.5,-18.7 10.9,-27.8 z m -328,39.7 c -0.6,-2.7 -1.4,-5.3 -2.4,-8 -0.7,6.1 -1.3,12.4 -1.5,18.7 1.1,-3.6 2.5,-7.1 3.9,-10.7 z m -15.1,-32.1 c -1.5,-2.2 -3.2,-4.4 -5.1,-6.4 2.1,1.6 3.9,3.1 5.8,4.9 3.6,-8.2 7.9,-16.2 12.6,-24 -3.2,-7.7 -7.2,-15.2 -11.9,-22.7 -7.9,17.7 -12.8,35.6 -15.6,53.5 2.5,4.9 4.6,9.9 6.6,15.1 2.3,-7 4.8,-13.7 7.6,-20.4 z m 14.2,13.9 c 2,2.8 3.8,5.8 5.5,8.8 1.5,-3 3.4,-6 5.3,-8.8 -1.3,-7.5 -3.1,-15.1 -5.3,-22.6 -2.4,7.6 -4.1,15.1 -5.5,22.6 z m 10,18.2 c 1.5,3.6 2.8,7.1 3.9,10.7 -0.3,-6.3 -0.8,-12.5 -1.5,-18.7 -1,2.7 -1.7,5.3 -2.4,8 z m -20.1,-86.2 c 5.8,6.1 10.9,12.4 15.6,19 4.6,-6.6 9.7,-12.9 15.4,-19 -4.4,-8.9 -9.4,-17.9 -15.4,-27 -6,9.1 -11.2,18 -15.6,27 z m 21.8,28.5 c 4.9,7.8 9,15.8 12.6,24 1.8,-1.7 3.8,-3.3 5.8,-4.9 -1.8,2 -3.5,4.2 -5.1,6.4 2.8,6.7 5.3,13.5 7.6,20.2 2,-5.2 4.1,-10.2 6.6,-15.1 -2.8,-17.9 -7.6,-35.8 -15.6,-53.5 -4.6,7.7 -8.6,15.2 -11.9,22.9 z m 214.4,26.8 c 2.5,3.8 4.8,7.7 6.9,11.6 2,-3.9 4.2,-7.8 6.7,-11.6 0.6,-5.8 1.5,-11.8 2.7,-17.6 -2.8,-5.3 -5.9,-10.5 -9.4,-15.7 -3.6,5.2 -6.7,10.3 -9.4,15.7 1.1,5.8 2,11.8 2.5,17.6 z m 115.9,0.8 c 2.8,4.2 5.3,8.6 7.4,13.2 1.5,-2.4 3.2,-4.5 5.1,-6.7 0.6,-8.2 1.7,-16.5 3.2,-24.8 -1.8,-3.4 -3.8,-7.1 -5.9,-10.5 -4.1,9.5 -7.4,19.1 -9.8,28.8 z m 10.7,20.1 c 0.4,0.9 0.7,1.9 1.1,2.7 0,-1.9 0,-3.9 0.1,-6 -0.3,1.1 -0.8,2.2 -1.2,3.3 z m 1.1,-53.2 c 2,2 3.9,4.2 5.8,6.4 2.9,-12.4 7,-24.9 12.8,-37.3 -7.6,10.4 -13.8,20.6 -18.6,30.9 z m -67.8,7.5 c -2.7,14.9 -3.2,29.5 -2.4,43.7 2.7,-9.9 5.9,-19.8 9.8,-29.5 -2,-4.6 -4.5,-9.5 -7.4,-14.2 z m 115.6,0 c -2.8,14.9 -3.4,29.5 -2.5,43.7 2.8,-9.9 6,-19.8 10,-29.5 -2.4,-4.6 -4.7,-9.5 -7.5,-14.2 z m -264.6,16 c 3.1,-5.5 6.7,-11.1 11.1,-16.6 2.8,9.7 5.1,19.4 6.5,29.3 -2.4,4.9 -4.6,9.9 -6.5,15.1 -3.1,-9.4 -6.8,-18.7 -11.1,-27.8 z m -13.2,9.6 c -2.8,4.2 -5.2,8.6 -7.4,13.2 -1.5,-2.4 -3.2,-4.5 -5.1,-6.7 -0.6,-8.2 -1.5,-16.5 -3.2,-24.8 1.8,-3.4 3.8,-7.1 6,-10.5 4.2,9.5 7.3,19.1 9.7,28.8 z m -10.5,20.1 c -0.4,0.9 -0.8,1.9 -1.3,2.7 0,-1.9 0,-3.9 -0.1,-6 0.5,1.1 1,2.2 1.4,3.3 z m -1.1,-53.2 c -2.1,2 -3.9,4.2 -5.8,6.4 -2.9,-12.4 -7.2,-24.9 -12.9,-37.3 7.6,10.4 13.7,20.6 18.7,30.9 z m 67.6,7.5 c 2.8,14.9 3.4,29.5 2.4,43.7 -2.7,-9.9 -5.9,-19.8 -9.8,-29.5 2.1,-4.6 4.6,-9.5 7.4,-14.2 z m -115.4,0 c 2.7,14.9 3.2,29.5 2.4,43.7 -2.7,-9.9 -6,-19.8 -9.8,-29.5 2.1,-4.6 4.5,-9.5 7.4,-14.2 z m -177.4,52.1 c -0.7,-4.1 -1.7,-8 -2.9,-11.9 -1.4,8.6 -2.1,17.4 -2.5,26.2 1.5,-4.9 3.3,-9.6 5.4,-14.3 z m -13.2,-36.1 c -3.1,-5.5 -6.7,-11.1 -10.9,-16.6 -2.9,9.7 -5.1,19.4 -6.6,29.3 2.4,4.9 4.6,9.9 6.6,15.1 2.9,-9.4 6.6,-18.7 10.9,-27.8 z m -102.7,8.8 c 2.5,3.8 4.8,7.7 6.9,11.6 2,-3.9 4.2,-7.8 6.7,-11.6 0.6,-5.8 1.5,-11.8 2.7,-17.6 -2.8,-5.3 -5.9,-10.5 -9.4,-15.7 -3.6,5.2 -6.7,10.3 -9.4,15.7 1.1,5.8 1.9,11.8 2.5,17.6 z m 115.9,0.8 c 2.8,4.2 5.3,8.6 7.4,13.2 1.5,-2.4 3.2,-4.5 5.1,-6.7 0.6,-8.2 1.7,-16.5 3.2,-24.8 -1.8,-3.4 -3.8,-7.1 -5.9,-10.5 -4.2,9.5 -7.4,19.1 -9.8,28.8 z m 10.7,20.1 c 0.4,0.9 0.7,1.9 1.1,2.7 0,-1.9 0,-3.9 0.1,-6 -0.4,1.1 -0.8,2.2 -1.2,3.3 z m 1.1,-53.2 c 2,2 3.9,4.2 5.8,6.4 2.8,-12.4 7,-24.9 12.8,-37.3 -7.6,10.4 -13.8,20.6 -18.6,30.9 z m -67.8,7.5 c -2.7,14.9 -3.2,29.5 -2.4,43.7 2.7,-9.9 5.9,-19.8 9.8,-29.5 -2,-4.6 -4.6,-9.5 -7.4,-14.2 z m 115.5,0 c -2.8,14.9 -3.4,29.5 -2.5,43.7 2.8,-9.9 6,-19.8 10,-29.5 -2.3,-4.6 -4.7,-9.5 -7.5,-14.2 z m -264.5,16 c 3.1,-5.5 6.7,-11.1 11.1,-16.6 2.8,9.7 5.1,19.4 6.5,29.3 -2.4,4.9 -4.6,9.9 -6.5,15.1 -3.1,-9.4 -6.8,-18.7 -11.1,-27.8 z m -13.2,9.6 c -2.8,4.2 -5.2,8.6 -7.4,13.2 -1.5,-2.4 -3.2,-4.5 -5.1,-6.7 -0.6,-8.2 -1.5,-16.5 -3.2,-24.8 1.8,-3.4 3.8,-7.1 6,-10.5 4.2,9.5 7.3,19.1 9.7,28.8 z m -10.5,20.1 c -0.4,0.9 -0.8,1.9 -1.3,2.7 0,-1.9 0,-3.9 -0.1,-6 0.5,1.1 0.9,2.2 1.4,3.3 z m -1.2,-53.2 c -2.1,2 -3.9,4.2 -5.8,6.4 -2.9,-12.4 -7.2,-24.9 -12.9,-37.3 7.7,10.4 13.8,20.6 18.7,30.9 z m 67.7,7.5 c 2.7,14.9 3.4,29.5 2.4,43.7 -2.7,-9.9 -5.9,-19.8 -9.8,-29.5 2.1,-4.6 4.6,-9.5 7.4,-14.2 z m -115.4,0 c 2.7,14.9 3.2,29.5 2.4,43.7 -2.7,-9.9 -6,-19.8 -9.8,-29.5 2.1,-4.6 4.5,-9.5 7.4,-14.2 z"
     class="color0ebaa0 svgShape"
     clip-rule="evenodd"
     id="path69" />
  <g
     class="color000000 svgShape"
     id="g74"
     transform="translate(-77.4,-74)">
    <path
       fill="#fe6442"
       fill-rule="evenodd"
       d="m 1670,1178.5 c 91.4,0 165.9,-74.5 165.9,-165.9 0,-91.3 -74.5,-165.9 -165.9,-165.9 -91.3,0 -165.9,74.5 -165.9,165.9 0,91.4 74.5,165.9 165.9,165.9 z"
       class="colorfeb542 svgShape"
       clip-rule="evenodd"
       id="path70" />
    <path
       fill="#ffe5d9"
       d="m 1671,1140.8 c -68.5,0 -124.3,-55.7 -124.3,-124.3 0,-68.5 55.7,-124.3 124.3,-124.3 68.5,0 124.3,55.7 124.3,124.3 0,68.5 -55.7,124.3 -124.3,124.3 z m 0,-239.6 c -63.6,0 -115.4,51.7 -115.4,115.4 0,63.6 51.7,115.4 115.4,115.4 63.6,0 115.4,-51.7 115.4,-115.4 0,-63.7 -51.7,-115.4 -115.4,-115.4 z"
       class="colorffffff svgShape"
       id="path71" />
    <path
       fill="#ffe5d9"
       d="m 1671,1140.8 c -19.8,0 -38.2,-13.3 -51.9,-37.4 -13.2,-23.3 -20.5,-54.2 -20.5,-86.8 0,-32.7 7.3,-63.5 20.5,-86.8 13.7,-24.1 32.1,-37.4 51.9,-37.4 19.8,0 38.2,13.3 51.9,37.4 13.2,23.3 20.5,54.2 20.5,86.8 0,32.7 -7.3,63.5 -20.5,86.8 -13.7,24.1 -32.1,37.4 -51.9,37.4 z m 0,-239.6 c -16.4,0 -32.1,11.7 -44.2,32.9 -12.5,22 -19.4,51.3 -19.4,82.4 0,31.1 6.9,60.4 19.4,82.4 12,21.2 27.7,32.9 44.2,32.9 16.4,0 32.1,-11.7 44.2,-32.9 12.5,-22 19.4,-51.3 19.4,-82.4 0,-31.1 -6.9,-60.4 -19.4,-82.4 -12,-21.3 -27.7,-32.9 -44.2,-32.9 z"
       class="colorffffff svgShape"
       id="path72" />
    <rect
       width="8.8999996"
       height="239.60001"
       x="1666.6"
       y="896.70001"
       fill="#ffe5d9"
       class="colorffffff svgShape"
       id="rect72" />
    <rect
       width="239.60001"
       height="8.8999996"
       x="1551.2"
       y="1012.1"
       fill="#ffe5d9"
       class="colorffffff svgShape"
       id="rect73" />
    <path
       fill="#ffe5d9"
       d="m 1671,961.6 c -31,0 -60.1,-10.2 -84.2,-29.4 l -4,-3.2 3.8,-3.5 c 23,-21.4 53,-33.2 84.5,-33.2 31.4,0 61.4,11.8 84.5,33.2 l 3.8,3.5 -4,3.2 c -23.9,18.9 -53.8,29.4 -84.4,29.4 z m -74.4,-33.2 c 21.6,15.9 47.3,24.3 74.4,24.3 26.8,0 53,-8.6 74.4,-24.3 -20.8,-17.6 -47.1,-27.3 -74.4,-27.3 -27.4,0.1 -53.6,9.7 -74.4,27.3 z"
       class="colorffffff svgShape"
       id="path73" />
    <path
       fill="#ffe5d9"
       d="m 1671,1140.8 c -31.4,0 -61.4,-11.7 -84.5,-33.1 l -3.8,-3.5 4,-3.2 c 24.2,-19.3 53.3,-29.5 84.2,-29.5 30.5,0 60.4,10.5 84.2,29.5 l 4.1,3.2 -3.8,3.5 c -23,21.3 -53,33.1 -84.4,33.1 z m -74.4,-36.1 c 20.8,17.6 47,27.2 74.4,27.2 27.3,0 53.5,-9.6 74.4,-27.2 -21.5,-15.7 -47.7,-24.3 -74.4,-24.3 -27.1,-0.1 -52.7,8.3 -74.4,24.3 z"
       class="colorffffff svgShape"
       id="path74" />
  </g>
</svg>
